<?xml version="1.0" encoding="utf-8"?>
<!-- Generator: Adobe Illustrator 22.1.0, SVG Export Plug-In . SVG Version: 6.00 Build 0)  -->
<svg version="1.1" xmlns="http://www.w3.org/2000/svg" xmlns:xlink="http://www.w3.org/1999/xlink" x="0px" y="0px"
	 viewBox="0 0 595.3 595.3" style="enable-background:new 0 0 595.3 595.3;" xml:space="preserve">
<style type="text/css">
	.st0{fill:#FFFFFF;}
	.st1{fill-rule:evenodd;clip-rule:evenodd;fill:#FFFFFF;}
	.st2{fill:none;stroke:#FFFFFF;stroke-width:0.7683;stroke-miterlimit:10;}
</style>
<g id="fond">
</g>
<g id="Calque_1">
	<g>
		<path class="st0" d="M68.1,372.6c-0.5,0.1-1-0.2-1.1-0.6c-0.1-0.5,0.2-0.9,0.6-1.1c77.9-19.9,155.1-30,231.8-30
			c76.7-0.1,152.7,9.9,228.1,30c0.5,0.1,0.7,0.6,0.6,1.1c-0.1,0.5-0.6,0.8-1.1,0.6c-75.3-20.1-151.2-30-227.7-30
			C223,342.6,145.9,352.7,68.1,372.6L68.1,372.6z"/>
		<polygon class="st0" points="294.5,350 294.5,363.6 292.7,363.6 292.7,350 294.5,350 		"/>
		<polygon class="st0" points="302.5,350 302.5,363.6 300.8,363.6 300.8,350 302.5,350 		"/>
		<polygon class="st0" points="318.6,350.2 318.6,363.6 316.8,363.6 316.8,350.2 318.6,350.2 		"/>
		<polygon class="st0" points="326.6,350.3 326.6,363.6 324.9,363.6 324.9,350.3 326.6,350.3 		"/>
		<polygon class="st0" points="230.2,352.2 230.2,363.6 228.5,363.6 228.5,352.2 230.2,352.2 		"/>
		<polygon class="st0" points="246.3,351.2 246.3,363.6 244.5,363.6 244.5,351.2 246.3,351.2 		"/>
		<polygon class="st0" points="254.3,350.9 254.3,363.6 252.6,363.6 252.6,350.9 254.3,350.9 		"/>
		<polygon class="st0" points="278.4,350.2 278.4,363.6 276.7,363.6 276.7,350.2 278.4,350.2 		"/>
		<polygon class="st0" points="174,357.8 174,363.6 172.3,363.6 172.3,357.8 174,357.8 		"/>
		<polygon class="st0" points="182.1,356.7 182.1,363.6 180.3,363.6 180.3,356.7 182.1,356.7 		"/>
		<polygon class="st0" points="198.1,354.9 198.1,363.6 196.4,363.6 196.4,354.9 198.1,354.9 		"/>
		<polygon class="st0" points="222.2,352.7 222.2,363.6 220.4,363.6 220.4,352.7 222.2,352.7 		"/>
		<polygon class="st0" points="334.7,350.6 334.7,363.6 332.9,363.6 332.9,350.6 334.7,350.6 		"/>
		<polygon class="st0" points="342.7,350.9 342.7,363.6 340.9,363.6 340.9,350.9 342.7,350.9 		"/>
		<polygon class="st0" points="366.8,352.1 366.8,363.6 365,363.6 365,352.1 366.8,352.1 		"/>
		<polygon class="st0" points="398.9,354.9 398.9,363.6 397.2,363.6 397.2,354.9 398.9,354.9 		"/>
		<polygon class="st0" points="358.8,351.7 358.8,363.6 357,363.6 357,351.7 358.8,351.7 		"/>
		<polygon class="st0" points="382.9,353.3 382.9,363.6 381.1,363.6 381.1,353.3 382.9,353.3 		"/>
		<polygon class="st0" points="407,355.7 407,363.6 405.2,363.6 405.2,355.7 407,355.7 		"/>
		<polygon class="st0" points="423,357.8 423,363.6 421.3,363.6 421.3,357.8 423,357.8 		"/>
		<polygon class="st0" points="350.7,351.2 350.7,363.6 349,363.6 349,351.2 350.7,351.2 		"/>
		<polygon class="st0" points="374.8,352.7 374.8,363.6 373.1,363.6 373.1,352.7 374.8,352.7 		"/>
		<polygon class="st0" points="390.9,354.1 390.9,363.6 389.1,363.6 389.1,354.1 390.9,354.1 		"/>
		<polygon class="st0" points="415,356.7 415,363.6 413.2,363.6 413.2,356.7 415,356.7 		"/>
		<polygon class="st0" points="262.4,350.6 262.4,363.6 260.6,363.6 260.6,350.6 262.4,350.6 		"/>
		<polygon class="st0" points="270.4,350.3 270.4,363.6 268.6,363.6 268.6,350.3 270.4,350.3 		"/>
		<polygon class="st0" points="286.5,350 286.5,363.6 284.7,363.6 284.7,350 286.5,350 		"/>
		<polygon class="st0" points="310.6,350 310.6,363.6 308.8,363.6 308.8,350 310.6,350 		"/>
		<polygon class="st0" points="190.1,355.7 190.1,363.6 188.3,363.6 188.3,355.7 190.1,355.7 		"/>
		<polygon class="st0" points="206.1,354.1 206.1,363.6 204.4,363.6 204.4,354.1 206.1,354.1 		"/>
		<polygon class="st0" points="214.2,353.3 214.2,363.6 212.4,363.6 212.4,353.3 214.2,353.3 		"/>
		<polygon class="st0" points="238.3,351.7 238.3,363.6 236.5,363.6 236.5,351.7 238.3,351.7 		"/>
		<path class="st0" d="M139.9,364.4c-0.5,0-0.9-0.4-0.9-0.9c0-0.5,0.4-0.9,0.9-0.9h313.6c0.5,0,0.9,0.4,0.9,0.9
			c0,0.5-0.4,0.9-0.9,0.9H139.9L139.9,364.4z"/>
		<path class="st0" d="M118.3,368.4c-1.6,0.3-2.7,0.9-3.4,1.7c-1,1-1.3,2.3-1.3,3.2l0,0.2c0,1.3,0.5,2.4,1.2,3.1
			c0.7,0.8,1.7,1.2,2.9,1.3h0.2c0.1,0,0.2,0,0.4,0h0c1-0.1,1.7-0.6,2.1-1.1c0.4-0.5,0.6-1.2,0.6-1.7l0-0.2c-0.1-0.5-0.3-1-0.5-1.3
			c-0.2-0.2-0.5-0.4-0.8-0.4l-0.2,0l0,0c-0.3,0-0.6,0.1-0.7,0.2l0,0c-0.1,0-0.1,0.1-0.1,0.2v0.1l-2.6,0l0-0.1v0c0-1,0.5-1.7,1.2-2.2
			h0c0.6-0.4,1.4-0.7,2.1-0.7h0.1h0.3h0.1c1.1,0,2.1,0.5,2.7,1.3c0.7,0.8,1.1,1.8,1.2,2.9l0,0l0,0.2v0.1c0,1.1-0.4,2.4-1.2,3.4
			c-0.8,1.1-2.1,1.9-3.9,2.1c-0.2,0-0.4,0-0.6,0h0h-0.2h0c-1.9,0-3.6-0.8-4.8-2.1c-1.2-1.3-1.9-3-1.9-4.9v0v-0.3v0
			c0-1.5,0.5-3.4,2-5c1.1-1.2,2.7-2.1,4.9-2.5L118.3,368.4L118.3,368.4z M117.9,378L117.9,378L117.9,378L117.9,378z"/>
		<path class="st0" d="M478.3,366.3c2,0.5,3.4,1.5,4.3,2.6l0,0c1.3,1.5,1.7,3.3,1.7,4.7v0v0.3v0c0,1.9-0.8,3.7-1.9,4.9
			c-1.2,1.3-2.8,2.1-4.8,2.1h0h-0.2h0c-0.2,0-0.4,0-0.6,0c-1.8-0.2-3.1-1-3.9-2.1c-0.8-1.1-1.2-2.4-1.2-3.4v0l0-0.2v0
			c0.1-1.1,0.5-2.1,1.2-2.9c0.7-0.7,1.6-1.2,2.7-1.3h0h0.3h0c0.8,0,1.5,0.3,2.1,0.7l0,0c0.7,0.5,1.2,1.3,1.2,2.2v0l0,0.1l-2.6,0
			v-0.1c0,0,0-0.1-0.1-0.2l0,0c-0.2-0.1-0.4-0.2-0.7-0.2l0,0h-0.2c-0.3,0-0.6,0.2-0.8,0.4c-0.3,0.3-0.5,0.8-0.5,1.3l0,0.2
			c0,0.5,0.2,1.1,0.6,1.7c0.4,0.6,1.1,1,2.1,1.1l0,0c0.1,0,0.3,0,0.4,0l0.2,0c1.2,0,2.2-0.5,2.9-1.3c0.7-0.8,1.2-1.9,1.2-3.1v-0.3
			c0-0.9-0.3-2.1-1.1-3h0c-0.6-0.7-1.6-1.4-3-1.7L478.3,366.3L478.3,366.3z M477.4,378.3L477.4,378.3L477.4,378.3L477.4,378.3z"/>
		<path class="st0" d="M117.7,365.8c60.9-12.2,121.4-18.3,181.6-18.2c60.2,0.1,120,6.3,179.3,18.8l-0.5,2.6
			c-59.2-12.4-118.8-18.6-178.8-18.7c-60-0.1-120.3,6-181.1,18.2L117.7,365.8L117.7,365.8z"/>
		<path class="st0" d="M68.9,381.3l-0.6,0.1c-1.2,0.3-2.1,0.7-2.6,1.3h0c-0.4,0.4-0.5,0.9-0.4,1.5v0l0.1,0.3c0.1,0.4,0.4,0.8,0.7,1
			c0.3,0.2,0.8,0.3,1.3,0.1l0,0c0.1,0,0.2,0,0.3-0.1l0.8,2.5c-0.2,0.1-0.4,0.1-0.6,0.2h0c-1.2,0.3-2.3,0.1-3.2-0.5
			c-0.9-0.5-1.5-1.4-1.9-2.4c-0.1-0.1-0.1-0.3-0.1-0.5h0c-0.3-1.5,0.1-2.8,1-3.9h0c0.9-1,2.3-1.7,4-2.1l0.6-0.1L68.9,381.3
			L68.9,381.3z"/>
		<path class="st0" d="M67.7,381.6c-0.7,0.2-1.4-0.3-1.6-1c-0.2-0.7,0.2-1.4,1-1.6c6.4-1.6,12.9-3.2,19.5-4.8
			c6.5-1.5,12.9-3,19.4-4.4c0.7-0.1,1.4,0.3,1.6,1c0.1,0.7-0.3,1.4-1,1.6c-6.4,1.4-12.9,2.8-19.4,4.4
			C80.8,378.3,74.3,379.9,67.7,381.6L67.7,381.6z"/>
		<path class="st0" d="M528.2,379.1c0.7,0.2,1.1,0.9,0.9,1.6c-0.2,0.7-0.9,1.1-1.6,1c-6.6-1.7-13.1-3.3-19.4-4.8
			c-6.5-1.5-13-3-19.4-4.4c-0.7-0.1-1.2-0.9-1-1.6c0.1-0.7,0.9-1.2,1.6-1c6.5,1.4,13,2.8,19.4,4.4
			C515.3,375.8,521.8,377.4,528.2,379.1L528.2,379.1z"/>
		<path class="st0" d="M527,378.8l0.6,0.1c1.7,0.4,3.1,1.1,4,2.1h0c0.9,1.1,1.4,2.4,1,3.9h0c0,0.2-0.1,0.4-0.1,0.5
			c-0.3,1-1,1.9-1.9,2.4c-0.9,0.5-2,0.8-3.2,0.5l0,0c-0.2,0-0.4-0.1-0.6-0.2l0.8-2.5c0.1,0,0.2,0.1,0.3,0.1l0,0c0.5,0.1,1,0,1.3-0.1
			c0.3-0.2,0.6-0.6,0.7-1l0.1-0.3v0c0.1-0.6,0-1.1-0.4-1.5l0,0c-0.5-0.6-1.5-1-2.6-1.3l-0.6-0.1L527,378.8L527,378.8z"/>
		<path class="st1" d="M75,382.2c1.2,0,2.2,1,2.2,2.2c0,1.2-1,2.2-2.3,2.2c-1.2,0-2.2-1-2.2-2.3C72.7,383.1,73.7,382.1,75,382.2
			L75,382.2z"/>
		<path class="st1" d="M106.3,375.3c1.2,0,2.2,1,2.2,2.3c0,1.2-1,2.2-2.3,2.1c-1.2,0-2.2-1-2.2-2.2
			C104.1,376.2,105.1,375.3,106.3,375.3L106.3,375.3z"/>
		<path class="st1" d="M100.1,376.7c1.2,0,2.2,1,2.2,2.3c0,1.2-1,2.2-2.3,2.2c-1.2,0-2.2-1-2.2-2.3
			C97.8,377.6,98.8,376.6,100.1,376.7L100.1,376.7z"/>
		<path class="st1" d="M93.8,378c1.2,0,2.2,1,2.2,2.3c0,1.2-1,2.2-2.3,2.2c-1.2,0-2.2-1-2.2-2.3C91.5,379,92.6,378,93.8,378
			L93.8,378z"/>
		<path class="st1" d="M87.5,379.4c1.2,0,2.2,1,2.2,2.3c0,1.2-1,2.2-2.3,2.2c-1.2,0-2.2-1-2.2-2.3C85.3,380.4,86.3,379.4,87.5,379.4
			L87.5,379.4z"/>
		<path class="st1" d="M81.2,380.8c1.2,0,2.2,1,2.2,2.3c0,1.2-1,2.2-2.3,2.2c-1.2,0-2.2-1-2.2-2.3C79,381.7,80,380.8,81.2,380.8
			L81.2,380.8z"/>
		<path class="st1" d="M520.3,382.2c-1.2,0-2.2,1-2.2,2.2c0,1.2,1,2.2,2.3,2.2c1.2,0,2.2-1,2.2-2.3
			C522.5,383.1,521.5,382.1,520.3,382.2L520.3,382.2z"/>
		<path class="st1" d="M489,375.3c-1.2,0-2.2,1-2.2,2.3c0,1.2,1,2.2,2.2,2.1c1.2,0,2.2-1,2.2-2.2C491.2,376.2,490.2,375.3,489,375.3
			L489,375.3z"/>
		<path class="st1" d="M495.2,376.7c-1.2,0-2.2,1-2.2,2.3c0,1.2,1,2.2,2.3,2.2c1.2,0,2.2-1,2.2-2.3
			C497.5,377.6,496.4,376.6,495.2,376.7L495.2,376.7z"/>
		<path class="st1" d="M501.5,378c-1.2,0-2.2,1-2.2,2.3c0,1.2,1,2.2,2.2,2.2c1.2,0,2.2-1,2.2-2.3C503.7,379,502.7,378,501.5,378
			L501.5,378z"/>
		<path class="st1" d="M507.8,379.4c-1.2,0-2.2,1-2.2,2.3c0,1.2,1,2.2,2.3,2.2c1.2,0,2.2-1,2.2-2.3C510,380.4,509,379.4,507.8,379.4
			L507.8,379.4z"/>
		<path class="st1" d="M514,380.8c-1.2,0-2.2,1-2.2,2.3c0,1.2,1,2.2,2.2,2.2c1.2,0,2.2-1,2.2-2.3C516.3,381.7,515.3,380.8,514,380.8
			L514,380.8z"/>
		<path class="st1" d="M476.7,375.9c-0.9-0.4-1.4-1.6-0.9-2.5c0.4-0.9,1.6-1.4,2.5-0.9c0.9,0.4,1.4,1.6,0.9,2.5
			C478.7,375.9,477.6,376.3,476.7,375.9L476.7,375.9z"/>
		<path class="st1" d="M117,375.8c-0.9-0.4-1.4-1.6-0.9-2.5c0.4-0.9,1.6-1.4,2.5-0.9c0.9,0.4,1.4,1.6,0.9,2.5
			C119,375.9,117.9,376.3,117,375.8L117,375.8z"/>
		<path class="st1" d="M68.2,383.8c1.2,0,2.2,1,2.2,2.2c0,1.2-1,2.2-2.3,2.2c-1.2,0-2.2-1-2.2-2.3C66,384.8,67,383.8,68.2,383.8
			L68.2,383.8z"/>
		<path class="st1" d="M527.2,383.8c1.2,0,2.2,1,2.2,2.2c0,1.2-1,2.2-2.2,2.2c-1.2,0-2.2-1-2.2-2.3
			C524.9,384.8,525.9,383.8,527.2,383.8L527.2,383.8z"/>
	</g>
	<g>
		<g>
			<path class="st0" d="M123.4,323.4c0.1,0.8,0.1,1.8,0,3.1c-0.1,1.3-0.2,2.3-0.4,3.1c-0.1,0.7-0.3,1.4-0.4,2.1
				c-0.1,0.7-0.3,1.3-0.5,1.9c-1.4,3.8-3.4,7-6.1,9.8c-1.1,1-2.2,2-3.4,2.8c-1.2,0.8-2.5,1.6-3.9,2.4c-0.7,0.4-1.4,0.8-2.1,1
				c-0.7,0.3-1.5,0.5-2.1,0.8c-0.3,0.1-0.6,0.2-0.9,0.3c-0.3,0.1-0.6,0.2-0.9,0.3c-0.2,0.1-0.5,0.2-0.8,0.2c-0.3,0-0.6,0.1-0.9,0.3
				c-0.2,0.1-0.5,0.2-0.8,0.2c-0.3,0-0.6,0.1-0.9,0.1c-10.8,2.4-16.2,3.7-27,6.2c-1,0.2-1.9,0.4-2.6,0.5c-0.7,0.1-1.2-0.3-1.5-1.2
				c-0.2-0.6-0.3-1.5-0.2-2.7c0-1.3,0.1-2.3,0.1-3.2c0.1-24.2,0.4-48.5,0.7-72.7c0-1,0-2,0-3.1c0-1.1,0.1-2,0.4-2.7
				c0.3-0.6,0.7-1,1.4-1.3c0.1-0.1,0.3-0.1,0.4-0.1c0.1,0,0.2,0,0.4-0.1c11.1-0.6,16.7-0.9,27.9-1.4c0.4,0,0.9-0.1,1.3-0.1
				c0.4-0.1,0.9-0.1,1.2,0c0.3,0.1,0.6,0.2,0.9,0.1c0.3-0.1,0.6-0.1,0.9,0c0.2,0,0.3,0,0.6,0c0.4,0.1,0.8,0.2,1.2,0.1
				c0.4-0.1,0.8,0,1.3,0.1c0.5,0.1,1,0.2,1.4,0.3c0.5,0.1,1,0.1,1.4,0.3c1.2,0.5,2.3,0.9,3.4,1.3c1.1,0.4,2,1,2.9,1.7
				c1.2,1,2.2,2.2,3,3.7c0.8,1.5,1.4,3.3,1.9,5.2c0.1,0.5,0.2,1,0.2,1.6s0.1,1.1,0.2,1.7c0.1,0.3,0.1,0.6,0,0.9c0,0.3,0,0.6,0,0.9
				c0,0.2,0.1,0.5,0,0.8c0,0.3-0.1,0.6-0.2,0.7c0,0.4,0,0.6,0,1c0,0.2,0,0.5-0.1,0.8c0,0.3-0.1,0.5-0.1,0.7c-0.1,0.5-0.2,1-0.3,1.4
				c0,0.4-0.1,0.8-0.3,1.2c-0.9,2.8-2,5.1-3.3,7c-0.4,0.6-0.9,1.1-1.4,1.5c-0.5,0.4-1,1-1.3,1.6c-0.1,0.2-0.3,0.4-0.4,0.7
				c-0.2,0.3-0.2,0.6-0.1,1c0.1,0.6,0.5,1.1,1.2,1.4c0.7,0.3,1.3,0.7,1.7,1c1.7,1.2,3,2.6,4,4.2c1,1.6,1.7,3.5,2.2,5.7
				c0.2,0.6,0.3,1.2,0.3,1.8c0,0.6,0.1,1.2,0.2,1.8C123.4,322.7,123.4,322.9,123.4,323.4z M83.6,286.7c-0.3,0.6-0.5,1.3-0.5,2.2
				s0,1.7,0,2.6c0,2.6-0.1,4-0.1,6.6c0,0.6,0,1.2-0.1,1.8c0,0.6,0,1.1,0,1.5c0,0.5,0,0.7,0,1.2c0.1,0.5,0.2,0.9,0.3,1.3
				c0.1,0.4,0.1,0.7,0.3,1c0.2,0.4,0.6,0.6,1.2,0.7c0.5,0.1,1.1,0.1,1.8,0.1c0.7,0,1.3-0.1,2-0.2c0.7-0.1,1.3-0.2,1.9-0.3
				c0.9-0.1,1.9-0.2,2.9-0.3c1-0.1,2-0.2,3.1-0.3c1-0.1,2-0.3,2.9-0.5c0.9-0.2,1.7-0.5,2.4-0.9c1.9-1,3.3-2.5,4.3-4.6
				c0.5-1.1,0.8-2.4,0.9-4c0.2-2.6-0.1-4.7-0.8-6.1c-0.7-1.4-1.8-2.5-3.2-3.3c-0.4-0.1-0.8-0.2-1.2-0.3c-0.4-0.1-0.9-0.2-1.4-0.3
				c-0.2-0.1-0.6-0.1-1.1,0c-0.7-0.2-1.6-0.2-2.6-0.1c-1,0.1-1.9,0.2-2.8,0.3c-3.2,0.2-4.8,0.4-7.9,0.6c-0.1,0.1-0.3,0.1-0.4,0.2
				c-0.2,0-0.3,0.1-0.4,0.2C84.3,285.8,83.8,286.2,83.6,286.7z M109,327.5c0.1-1.1,0.1-2.2-0.1-3.4s-0.4-2-0.7-2.6
				c-0.8-2.6-2.5-4.3-5-5c-1-0.2-2.2-0.3-3.5-0.2c-1.3,0.1-2.6,0.3-4,0.5c-4.2,0.6-6.3,0.9-10.5,1.6c-0.1,0.2-0.2,0.3-0.3,0.2
				c-0.1,0-0.2,0-0.3,0c-0.7,0.4-1.2,0.8-1.5,1.4c-0.3,0.7-0.5,1.5-0.5,2.6s0,1.9,0,2.8c-0.1,4.3-0.1,6.4-0.1,10.6
				c0,0.9,0,1.9,0,2.9c0,1,0.2,1.7,0.5,2.2c0.2,0.3,0.6,0.5,1.2,0.6c0.6,0.1,1.2,0.1,1.9,0c0.7-0.1,1.4-0.3,2.2-0.4
				c0.7-0.2,1.4-0.3,1.9-0.4c1.9-0.4,3.6-0.7,5.4-1c1.7-0.3,3.4-0.7,4.9-1.3c1.5-0.6,2.9-1.3,4.1-2.1c1.2-0.9,2.2-2,3-3.5
				c0.3-0.6,0.6-1.4,0.8-2.2c0.2-0.8,0.4-1.6,0.6-2.5C108.9,327.9,109,327.8,109,327.5z"/>
			<path class="st0" d="M191.7,331.2c0.1,0.2,0.2,0.5,0.3,0.9c0.2,0.3,0.3,0.7,0.4,1.1c0.1,0.4,0.1,0.8,0,1.1
				c-0.1,0.4-0.3,0.7-0.7,0.9c-0.5,0.4-1.3,0.6-2.5,0.7c-1.2,0.1-2.1,0.2-2.9,0.3c-1.8,0.2-2.6,0.3-4.4,0.6c-0.5,0.1-1,0.1-1.4,0.2
				c-0.4,0.1-0.8,0.1-1.2,0c-0.7-0.1-1.2-0.4-1.5-0.9c-0.3-0.4-0.5-0.9-0.7-1.5c-0.1-0.5-0.4-1.1-0.6-1.6c-0.3-0.9-0.6-1.9-0.9-2.9
				c-0.3-1-0.7-1.9-1-2.8c-0.2-0.5-0.3-1.1-0.5-1.5c-0.1-0.5-0.3-0.9-0.5-1.2c-0.2-0.4-0.5-0.7-0.8-0.9c-0.4-0.2-0.9-0.4-1.5-0.4
				c-0.3,0-0.6,0.1-0.9,0.1c-0.3,0-0.6,0-0.9,0.1c-5.9,0.8-8.9,1.2-14.8,2c-1.1,0.2-2.2,0.3-3.4,0.4c-1.2,0.1-2.2,0.5-2.9,1.2
				c-0.5,0.5-0.9,1.1-1.1,1.8c-0.2,0.7-0.4,1.4-0.7,2.1c-0.5,1.2-1,2.5-1.3,3.8c-0.4,1.3-0.8,2.6-1.2,3.8c-0.3,0.7-0.5,1.4-0.7,2.2
				c-0.2,0.8-0.6,1.4-1.1,1.8c-0.3,0.3-0.8,0.6-1.4,0.8c-0.6,0.2-1.2,0.4-2,0.5c-0.7,0.1-1.4,0.3-2.2,0.4c-0.7,0.1-1.4,0.2-2,0.3
				c-0.8,0.2-1.8,0.4-2.9,0.6c-1.1,0.3-2,0.3-2.5,0c-0.3-0.1-0.5-0.4-0.5-0.8c0-0.4,0-0.8,0.1-1.3c0.1-0.5,0.2-0.9,0.3-1.3
				c0.1-0.4,0.3-0.8,0.4-1.1c0.6-1.7,1.2-3.4,1.8-5.1c0.6-1.7,1.1-3.5,1.7-5.2c0.3-0.6,0.5-1.2,0.6-1.8c0.1-0.6,0.3-1.2,0.6-1.8
				c0.5-1.6,1.1-3.1,1.6-4.8c0.5-1.6,1.1-3.2,1.6-4.8c0.5-1.5,1-3,1.5-4.4c0.5-1.5,1-2.9,1.5-4.4c1.5-4.1,3-8.3,4.3-12.4
				c1.3-4.1,2.8-8.2,4.3-12.2c0.1-0.4,0.2-0.7,0.3-1c0.1-0.3,0.2-0.6,0.3-1c0.5-1.5,1.1-3.1,1.6-4.6c0.5-1.6,1.1-3.1,1.7-4.6
				c0.3-0.8,0.6-1.6,0.9-2.4c0.2-0.8,0.6-1.5,1.2-2c0.3-0.2,0.7-0.4,1.2-0.6c0.1-0.1,0.3-0.1,0.4-0.1c0.1,0,0.2,0,0.4-0.1
				c3.3-0.1,5-0.2,8.3-0.3c0.7,0,1.4-0.1,2.1-0.1c0.7-0.1,1.3,0.1,1.7,0.4c0.6,0.4,1.1,0.9,1.3,1.7c0.2,0.8,0.4,1.5,0.7,2.3
				c0.4,1.1,0.8,2.2,1.1,3.3c0.3,1.1,0.7,2.2,1.1,3.3c0.1,0.4,0.2,0.8,0.3,1.2c0.1,0.4,0.2,0.8,0.3,1.2c0.5,1.3,0.9,2.6,1.3,3.9
				c0.4,1.3,0.8,2.6,1.3,3.9c1.1,3.3,2.2,6.6,3.2,10c1,3.3,2.1,6.6,3.3,9.8c0.1,0.3,0.2,0.5,0.2,0.7c0,0.2,0.1,0.5,0.2,0.7
				c0.3,1,0.7,2,1,3c0.3,1,0.7,2,1,3c0.2,0.5,0.4,1,0.5,1.4c0.1,0.5,0.3,1,0.4,1.4c0.8,2,1.5,3.9,2.1,5.9c0.6,1.9,1.4,3.8,2.1,5.6
				c0.1,0.2,0.2,0.3,0.2,0.5C191.5,330.9,191.6,331.1,191.7,331.2z M167.9,311.9c0.8-0.4,1.2-1,1.2-1.9c0-0.8-0.2-1.6-0.5-2.3
				c-0.1-0.3-0.2-0.5-0.2-0.7c0-0.2,0-0.5-0.2-0.7c-0.7-2.2-1.4-4.5-2-6.9c-0.6-2.4-1.3-4.7-2.1-7.1c-0.1-0.3-0.2-0.8-0.3-1.3
				c-0.1-0.5-0.3-1-0.4-1.4c-0.2-0.4-0.4-0.8-0.6-1.1c-0.2-0.3-0.5-0.5-0.9-0.5c-0.1,0.1-0.3,0.3-0.4,0.3c-0.1,0.1-0.3,0.2-0.4,0.3
				c-0.5,0.7-0.9,1.6-1.2,2.6c-0.2,1-0.5,2-0.9,2.9c-0.8,2-1.5,4.1-2.2,6.2c-0.7,2.1-1.4,4.2-2.1,6.3c-0.3,0.7-0.5,1.4-0.7,2.1
				c-0.2,0.7-0.4,1.5-0.6,2.2c-0.2,0.6-0.2,1.3,0,1.9c0.2,0.4,0.8,0.7,1.5,0.6c0.7,0,1.4-0.1,2.2-0.2c2.8-0.3,4.3-0.5,7.1-0.8
				c0.6-0.1,1.2-0.1,1.9-0.2C166.8,312.2,167.4,312.1,167.9,311.9z"/>
			<path class="st0" d="M257.8,328.5c0.1,0.3,0.1,0.6-0.1,0.9c-0.2,0.3-0.3,0.5-0.5,0.6c-0.4,0.3-0.9,0.4-1.6,0.4c-0.7,0-1.3,0-2,0
				c-2.1,0.1-3.1,0.1-5.2,0.2c-1,0-1.9,0.1-2.6,0c-0.8,0-1.3-0.3-1.7-0.9c-0.5-0.7-0.8-1.6-0.8-2.7s-0.2-2.1-0.4-3.1
				c0-0.2,0-0.5,0-0.7c0-0.2,0-0.4,0-0.6c-0.2-0.7-0.3-1.4-0.2-2.3c0-0.8,0-1.5-0.1-2.2c-0.1-0.2-0.1-0.5-0.1-0.8
				c0-0.6-0.2-1.3-0.3-2c-0.1-0.7-0.2-1.4-0.4-2c-0.5-1.4-1-2.6-1.7-3.7c-0.7-1.1-1.6-1.9-2.8-2.4c-0.3-0.1-0.6-0.2-0.9-0.2
				s-0.7-0.1-1-0.2c-1.1-0.3-2.4-0.5-3.9-0.4c-1.5,0.1-2.9,0.1-4.4,0.2c-3.1,0.2-4.6,0.2-7.7,0.4c-0.5,0.2-0.9,0.3-1.3,0.4
				c-0.4,0.1-0.7,0.3-1,0.6c-0.5,0.7-0.8,1.7-0.7,3c0,1.3,0,2.5,0,3.6c-0.1,4.8-0.2,7.1-0.3,11.7c0,0.5,0,1-0.1,1.5
				c0,0.5-0.1,1-0.1,1.5c0,0.5,0,0.9,0,1.3c0,0.4-0.1,0.7-0.2,1c-0.2,0.5-0.6,0.9-1.1,1.1c-0.3,0.1-0.7,0.2-1.1,0.3
				c-0.4,0-0.9,0.1-1.4,0.1c-1.7,0.2-2.5,0.2-4.2,0.4c-1,0.1-2.1,0.2-3.2,0.4c-1.1,0.1-2,0-2.5-0.3c-0.5-0.3-0.7-0.8-0.7-1.6
				c0-0.8,0-1.6,0-2.4c0.3-19.5,1.2-38.9,1.8-58.4c0-0.7,0-1.4,0-2.2c0-0.8,0.2-1.4,0.5-1.8c0.3-0.4,0.7-0.7,1.4-1
				c0.1-0.1,0.3-0.1,0.4-0.1c0.2,0,0.3,0,0.4-0.1c10.6-0.2,21.2-0.4,31.9-0.6c1,0,1.9,0,2.9,0c0.9,0,1.8,0.1,2.6,0.3
				c0.3,0.1,0.6,0.2,1,0.2c0.3,0,0.7,0.1,1,0.2c0.4,0.1,0.9,0.2,1.3,0.3c0.4,0.1,0.9,0.3,1.3,0.4c1.5,0.7,3,1.5,4.2,2.4
				c1.3,1,2.3,2.1,3.2,3.4c0.2,0.3,0.4,0.6,0.6,1c0.1,0.3,0.3,0.7,0.6,1c0.5,0.9,0.8,1.7,1,2.7c0.2,0.9,0.5,1.9,0.7,3.1
				c0.1,0.2,0.1,0.5,0,0.7c0,0.2,0,0.5,0.1,0.7c0,0.3,0,0.5,0,0.8c0.1,0.5,0.1,1.1,0,1.8c-0.1,0.7-0.2,1.3-0.3,1.7
				c-0.1,0.5-0.2,1-0.2,1.4c0,0.4-0.1,0.8-0.2,1.3c-0.3,0.9-0.7,1.8-1,2.7c-0.3,0.8-0.8,1.7-1.3,2.4c-0.1,0.2-0.3,0.4-0.5,0.6
				c-0.2,0.2-0.4,0.4-0.5,0.6c-0.2,0.3-0.4,0.5-0.6,0.8c-0.2,0.3-0.5,0.5-0.7,0.7c-0.4,0.3-0.8,0.6-1.2,1c-0.4,0.3-0.8,0.6-1.3,1
				c-0.3,0.2-0.5,0.4-0.8,0.6s-0.5,0.5-0.6,0.8c-0.1,0.4-0.1,0.7,0.2,0.9c0.2,0.2,0.5,0.4,0.6,0.5c0.6,0.5,1.2,1,1.8,1.4
				c0.6,0.5,1.1,1,1.5,1.7c0.7,1,1.3,2.1,1.7,3.2c0.4,1.1,0.8,2.3,1.1,3.7c0.1,0.5,0.2,1.1,0.2,1.7c0,0.6,0.1,1.2,0.2,1.7
				c0,0.3,0,0.7,0,1c0,0.3,0,0.7,0,1c0,0.2,0.1,0.5,0,0.8c0,0.3,0,0.6,0,0.8c0.1,0.2,0.1,0.5,0,0.7c0,0.2,0,0.5,0,0.8
				c0.1,0.6,0.2,1.2,0.2,1.8c0,0.6,0,1.3,0.2,1.8c0.1,0.6,0.2,0.9,0.3,1.6c0.1,0.5,0.2,1,0.4,1.5
				C257.6,327.5,257.7,328.1,257.8,328.5z M243.4,287.9c0.2-0.7,0.2-1.5,0.1-2.5c-0.1-1-0.1-1.8-0.2-2.3c-0.1-0.2-0.2-0.5-0.2-0.7
				c0-0.2-0.1-0.4-0.2-0.6c-0.7-1.9-2-3.3-4-4.1c-1-0.5-2.3-0.7-3.6-0.8c-1.4,0-2.8,0-4.3,0c-4.3,0.1-6.5,0.2-10.9,0.3
				c-0.1,0.1-0.3,0.2-0.4,0.2c-0.1,0-0.2,0-0.4,0c-0.8,0.2-1.3,0.6-1.5,1c-0.3,0.5-0.5,1.2-0.5,2c0,0.8,0,1.6,0,2.3
				c-0.1,3.6-0.2,5.4-0.3,8.9c0,0.8-0.1,1.5-0.1,2.3c0,0.8,0.1,1.4,0.4,1.8c0.2,0.4,0.6,0.6,1.2,0.7c0.6,0.1,1.2,0.2,1.9,0.2
				c0.7,0,1.4,0,2.2-0.1c0.8-0.1,1.4-0.1,2-0.1c2.2-0.1,3.3-0.1,5.5-0.2c0.4,0,0.9,0,1.4,0c0.5,0,0.9-0.1,1.3-0.2c0.5,0,0.7,0,1.2,0
				c0.5-0.1,1-0.2,1.5-0.2c0.5,0,0.9-0.1,1.4-0.2c1.1-0.4,2-0.8,2.9-1.3c0.8-0.5,1.6-1.2,2.1-2c0.4-0.6,0.7-1.2,0.9-1.9
				C243,289.6,243.2,288.8,243.4,287.9z"/>
			<path class="st0" d="M275.6,265.3c3,0,4.6,0,7.6,0c0.7,0,1.4,0,2-0.1c0.7,0,1.2,0.1,1.7,0.3c0.6,0.3,1.1,0.6,1.4,1.1
				c0.3,0.5,0.6,1,0.9,1.4c1.3,2.1,1.9,3.1,3.2,5.2c2.1,3.5,4.2,7,6.3,10.4c2.1,3.5,4.2,7,6.3,10.5c1,1.7,2,3.4,3,5
				c1,1.7,2,3.3,3.1,4.9c0.2,0.4,0.5,0.7,0.7,1.1c0.2,0.4,0.5,0.7,0.9,1c0.1,0.1,0.3,0.2,0.5,0.4c0.2,0.1,0.4,0.1,0.6,0
				c0.4-0.1,0.7-0.4,0.7-0.8c0-0.4,0.1-0.9,0.2-1.4c0.1-0.4,0.1-0.9,0.1-1.4c0-0.5,0-1,0-1.5c0.1-2.3,0.1-3.5,0.2-5.8
				c0.2-8.6,0.4-12.9,0.6-21.5c0-1.4,0.1-2.1,0.1-3.5c0-0.3,0-0.6,0-0.9c0-0.3,0-0.6,0.1-0.8c0-0.4,0-0.6,0-1c0-0.8,0.2-1.5,0.6-2
				c0.3-0.4,0.7-0.7,1.3-0.7c0.5-0.1,1.1-0.1,1.8-0.1c2.3,0,3.4,0,5.7,0c0.5,0,1,0,1.5,0c0.5,0,0.9,0.1,1.3,0.2
				c0.8,0.3,1.2,0.8,1.3,1.6c0,0.8,0.1,1.7,0,2.7c-0.1,4-0.1,6-0.3,10.1c-0.4,12.8-0.7,25.7-0.9,38.5c0,3-0.1,4.4-0.1,7.3
				c0,0.6,0,1.3,0,1.9c0,0.6-0.1,1.1-0.3,1.4c-0.2,0.3-0.6,0.5-0.9,0.6c-0.3,0.1-0.8,0.2-1.3,0.3c-1.3,0-2-0.1-3.3-0.1
				c-2.1-0.1-3.1-0.1-5.2-0.1c-0.6,0-1.1,0-1.6,0c-0.5,0-1-0.1-1.4-0.3c-0.7-0.3-1.2-0.7-1.6-1.2c-0.4-0.5-0.8-1-1.1-1.6
				c-0.5-0.8-1.1-1.6-1.6-2.5c-0.5-0.8-1.1-1.7-1.6-2.5c-5.6-8.4-8.3-12.8-13.6-21.6c-0.8-1.4-1.7-2.8-2.5-4.1s-1.6-2.7-2.5-4.1
				c-0.3-0.4-0.6-1-1-1.6s-0.9-1-1.6-1c-0.5,0.4-0.8,0.9-0.8,1.5c0,0.6-0.1,1.3-0.1,2.1c-0.1,2.6-0.1,3.9-0.2,6.5
				c-0.3,8.8-0.4,13.2-0.5,21.5c0,1.4,0,2,0,3.4c0,0.3,0,0.6,0,0.9c0,0.3,0,0.6-0.1,0.9c0,0.4,0,0.6,0,0.9c0,0.9-0.2,1.6-0.5,1.9
				c-0.3,0.3-0.7,0.5-1.3,0.6c-0.5,0.1-1.1,0.1-1.8,0.1c-2.3,0-3.4,0.1-5.7,0.1c-0.5,0-1,0-1.5,0c-0.5,0-0.9,0-1.3-0.1
				c-0.8-0.3-1.3-0.8-1.4-1.5c-0.1-0.7-0.1-1.6-0.1-2.6c0-3.9,0.1-6,0.2-10.1c0.3-12.3,0.7-24.6,1.1-36.9c0.1-3.4,0.2-5.2,0.3-8.5
				c0-0.7,0-1.4,0.1-2.1c0-0.7,0.2-1.3,0.4-1.7c0.3-0.4,0.7-0.7,1.3-0.9c0.1,0,0.3,0,0.4,0C275.3,265.3,275.5,265.3,275.6,265.3z"/>
			<path class="st0" d="M399.9,330.8c0.1,0.2,0.2,0.6,0.3,0.9c0.2,0.4,0.3,0.8,0.4,1.2c0.1,0.4,0.1,0.8,0.1,1.1
				c-0.1,0.3-0.3,0.6-0.7,0.7c-0.5,0.2-1.3,0.3-2.5,0.1c-1.2-0.2-2.1-0.3-2.9-0.4c-1.8-0.2-2.6-0.3-4.4-0.5c-0.5-0.1-1-0.1-1.4-0.1
				c-0.4,0-0.8-0.1-1.2-0.3c-0.7-0.2-1.2-0.7-1.5-1.2c-0.3-0.5-0.6-1-0.7-1.6c-0.2-0.5-0.4-1.1-0.6-1.7c-0.3-0.9-0.6-2-1-3
				c-0.3-1-0.7-2-1.1-2.9c-0.2-0.6-0.4-1.1-0.5-1.6c-0.2-0.5-0.3-0.9-0.5-1.3c-0.2-0.4-0.5-0.7-0.8-1c-0.4-0.3-0.9-0.5-1.5-0.7
				c-0.3,0-0.6-0.1-0.9-0.1c-0.3-0.1-0.6-0.1-0.9-0.1c-5.9-0.4-8.9-0.6-14.8-0.9c-1.1-0.1-2.2-0.1-3.4-0.2c-1.2-0.1-2.2,0.1-2.9,0.5
				c-0.5,0.3-0.9,0.8-1.1,1.4c-0.2,0.6-0.4,1.2-0.7,1.8c-0.5,1-0.9,2-1.3,3.1c-0.3,1.1-0.7,2.1-1.2,3.1c-0.3,0.6-0.5,1.2-0.7,1.8
				c-0.2,0.6-0.6,1.1-1.1,1.4c-0.3,0.2-0.8,0.3-1.4,0.4c-0.6,0.1-1.3,0.1-2,0c-0.7,0-1.5-0.1-2.2-0.2c-0.8-0.1-1.4-0.1-2-0.1
				c-0.8,0-1.8-0.1-3-0.1c-1.2,0-2-0.2-2.5-0.5c-0.3-0.2-0.5-0.4-0.5-0.8c0-0.3,0-0.7,0.1-1.1c0.1-0.4,0.2-0.7,0.3-1.1
				c0.1-0.3,0.2-0.6,0.4-0.8c0.6-1.3,1.2-2.6,1.8-4s1.1-2.8,1.7-4.1c0.3-0.5,0.5-0.9,0.6-1.4c0.1-0.5,0.3-0.9,0.6-1.4
				c0.5-1.2,1-2.5,1.6-3.8c0.5-1.3,1-2.6,1.6-3.9c0.5-1.2,1-2.4,1.5-3.6c0.5-1.2,1-2.4,1.5-3.6c1.5-3.4,2.9-6.8,4.3-10.3
				c1.3-3.5,2.7-6.9,4.2-10.4c0.1-0.3,0.2-0.6,0.3-0.8c0.1-0.2,0.2-0.5,0.3-0.8c0.5-1.3,1.1-2.6,1.6-4c0.5-1.4,1.1-2.7,1.7-4
				c0.3-0.7,0.6-1.4,0.8-2.1s0.6-1.3,1.2-1.7c0.3-0.2,0.7-0.3,1.2-0.4c0.1-0.1,0.2-0.1,0.4,0c0.1,0,0.2,0,0.4,0
				c3.3,0,4.9,0.1,8.2,0.1c0.7,0,1.4,0,2.1,0c0.7,0,1.3,0.2,1.7,0.4c0.6,0.4,1.1,0.9,1.3,1.7c0.2,0.7,0.5,1.5,0.8,2.2
				c0.4,1.1,0.8,2.1,1.2,3.2c0.4,1.1,0.7,2.1,1.2,3.2c0.1,0.4,0.2,0.8,0.4,1.2c0.1,0.4,0.2,0.8,0.3,1.2c0.5,1.3,0.9,2.6,1.3,3.8
				c0.4,1.3,0.8,2.6,1.3,3.9c1.2,3.3,2.3,6.6,3.3,10c1,3.4,2.2,6.7,3.4,10c0.1,0.3,0.2,0.5,0.2,0.7c0,0.2,0.1,0.5,0.2,0.7
				c0.4,1.1,0.7,2.1,1.1,3.2c0.4,1.1,0.7,2.1,1.1,3.1c0.2,0.5,0.4,1,0.5,1.5c0.1,0.5,0.3,1,0.5,1.5c0.8,2.1,1.5,4.2,2.2,6.2
				c0.7,2.1,1.4,4.1,2.2,6.1c0.1,0.2,0.2,0.4,0.2,0.5C399.7,330.4,399.9,330.6,399.9,330.8z M375.9,307.4c0.8-0.3,1.2-0.8,1.2-1.5
				c0-0.8-0.2-1.5-0.5-2.2c-0.1-0.3-0.2-0.5-0.2-0.7c0-0.2-0.1-0.5-0.2-0.7c-0.8-2.2-1.5-4.4-2.1-6.7c-0.6-2.3-1.4-4.5-2.2-6.8
				c-0.1-0.3-0.2-0.7-0.3-1.2c-0.1-0.5-0.3-0.9-0.4-1.4c-0.2-0.4-0.4-0.8-0.6-1.1c-0.2-0.3-0.6-0.5-0.9-0.5
				c-0.1,0.1-0.3,0.2-0.4,0.3c-0.1,0.1-0.3,0.2-0.4,0.3c-0.5,0.6-0.9,1.4-1.1,2.2c-0.2,0.9-0.5,1.7-0.9,2.5
				c-0.8,1.8-1.5,3.5-2.2,5.3c-0.6,1.8-1.3,3.6-2.1,5.4c-0.3,0.6-0.5,1.2-0.7,1.8c-0.2,0.6-0.4,1.3-0.6,1.9
				c-0.2,0.5-0.2,1.2,0.1,1.7c0.2,0.4,0.8,0.7,1.5,0.8c0.7,0.1,1.5,0.2,2.2,0.2c2.9,0.1,4.3,0.2,7.1,0.4c0.6,0,1.2,0.1,1.9,0.1
				C374.8,307.6,375.3,307.5,375.9,307.4z"/>
			<path class="st0" d="M465.3,322.5c0.1,0.8,0.1,1.8,0,3.1c-0.1,1.3-0.2,2.2-0.3,2.9c-0.1,0.7-0.3,1.3-0.4,1.9
				c-0.1,0.6-0.3,1.2-0.5,1.7c-1.3,3.2-3.3,5.7-6.1,7.3c-1.1,0.6-2.2,1.1-3.4,1.4c-1.2,0.3-2.5,0.6-3.9,0.8
				c-0.7,0.1-1.4,0.2-2.1,0.1s-1.5-0.1-2.1,0c-0.3,0-0.6,0-0.9-0.1c-0.3,0-0.6-0.1-0.9-0.1c-0.2,0-0.5,0-0.8-0.1
				c-0.3-0.1-0.6-0.1-0.9-0.1c-0.2,0-0.5,0-0.8-0.1c-0.3-0.1-0.6-0.1-0.9-0.2c-10.9-1.9-16.4-2.7-27.3-4.3c-1.1-0.1-2-0.3-2.7-0.5
				c-0.7-0.2-1.3-0.7-1.6-1.4c-0.2-0.5-0.3-1.3-0.2-2.3c0-1,0-1.9,0-2.5c0.1-19.2,0.5-38.4,0.9-57.6c0-0.8,0-1.6,0-2.5
				c0-0.9,0.1-1.6,0.4-2.1c0.3-0.4,0.7-0.7,1.4-0.9c0.1-0.1,0.2-0.1,0.4,0c0.1,0,0.2,0,0.4,0c11.1,0.4,16.6,0.7,27.7,1.2
				c0.4,0,0.9,0,1.3,0c0.4,0,0.9,0,1.2,0.1c0.3,0.1,0.6,0.2,0.9,0.1c0.3-0.1,0.6,0,0.9,0c0.2,0,0.3,0,0.6,0c0.4,0.2,0.8,0.2,1.2,0.2
				c0.4,0,0.8,0.1,1.3,0.2c0.5,0.2,1,0.3,1.4,0.4c0.5,0.1,0.9,0.2,1.4,0.4c1.2,0.5,2.3,1.1,3.3,1.6c1,0.5,2,1.1,2.9,1.9
				c1.2,1.1,2.2,2.4,3,3.9c0.8,1.5,1.4,3.3,1.9,5.3c0.1,0.5,0.2,1,0.2,1.5c0,0.5,0.1,1.1,0.2,1.6c0.1,0.3,0.1,0.6,0,0.9
				c0,0.3,0,0.6,0,0.9c0,0.2,0.1,0.5,0,0.8c0,0.3-0.1,0.6-0.1,0.7c0,0.4,0,0.6,0,1c0,0.2,0,0.5-0.1,0.8c0,0.3-0.1,0.5-0.1,0.6
				c-0.1,0.5-0.2,0.9-0.3,1.3c0,0.4-0.1,0.8-0.2,1.1c-0.8,2.5-1.9,4.5-3.2,6.1c-0.4,0.5-0.9,0.8-1.4,1.1c-0.5,0.3-0.9,0.7-1.3,1.3
				c-0.1,0.1-0.3,0.3-0.4,0.5c-0.2,0.2-0.1,0.5-0.1,0.9c0.1,0.5,0.5,1.1,1.2,1.6c0.7,0.5,1.3,0.9,1.8,1.3c1.7,1.5,3,3.2,4,5
				c1,1.8,1.7,3.8,2.3,6.1c0.2,0.6,0.3,1.2,0.4,1.8c0.1,0.6,0.1,1.2,0.3,1.8C465.3,321.8,465.3,322,465.3,322.5z M425.3,280.6
				c-0.3,0.5-0.5,1-0.5,1.7c0,0.7,0,1.4,0,2.2c0,2.2-0.1,3.3-0.1,5.5c0,0.5,0,1-0.1,1.5c0,0.5,0,0.9,0,1.3c0,0.4,0,0.6,0,1
				c0.1,0.4,0.2,0.8,0.3,1.1c0.1,0.3,0.1,0.6,0.3,0.9c0.2,0.4,0.6,0.6,1.2,0.8c0.5,0.2,1.1,0.3,1.8,0.4c0.7,0.1,1.3,0.2,2,0.2
				c0.7,0,1.3,0.1,1.9,0.1c0.9,0.1,1.9,0.2,2.9,0.3c1,0.1,2,0.2,3.1,0.3c1,0.1,2,0.1,2.9,0.1s1.7-0.1,2.4-0.3
				c1.9-0.5,3.3-1.6,4.2-3.3c0.4-0.9,0.8-2.1,0.9-3.5c0.2-2.3-0.1-4.3-0.9-5.7c-0.7-1.4-1.8-2.6-3.2-3.4c-0.4-0.2-0.8-0.3-1.2-0.5
				c-0.4-0.1-0.9-0.3-1.4-0.5c-0.2-0.1-0.6-0.1-1.1-0.2c-0.7-0.3-1.6-0.4-2.6-0.4c-1,0-1.9-0.1-2.7-0.1c-3.2-0.2-4.7-0.3-7.9-0.5
				c-0.1,0.1-0.3,0.1-0.4,0.1c-0.2,0-0.3,0-0.4,0.1C426,280,425.6,280.3,425.3,280.6z M450.9,322c0.1-0.9,0.1-2-0.1-3.1
				c-0.2-1.1-0.4-2-0.7-2.6c-0.8-2.6-2.5-4.6-5.1-5.9c-1.1-0.5-2.2-0.8-3.5-1c-1.3-0.2-2.6-0.4-4-0.6c-4.2-0.5-6.3-0.7-10.5-1.2
				c-0.1,0.1-0.2,0.2-0.3,0.1c-0.1,0-0.2-0.1-0.3-0.1c-0.7,0.1-1.2,0.4-1.5,0.9c-0.3,0.5-0.5,1.2-0.5,2c0,0.8,0,1.6,0,2.4
				c0,3.6-0.1,5.3-0.1,8.8c0,0.8,0,1.6,0,2.4c0,0.8,0.2,1.5,0.5,2c0.2,0.4,0.7,0.7,1.2,0.9c0.6,0.2,1.2,0.4,1.9,0.6
				c0.7,0.1,1.4,0.2,2.2,0.3c0.7,0.1,1.4,0.1,2,0.2c1.9,0.3,3.7,0.5,5.4,0.8c1.7,0.3,3.4,0.4,4.9,0.4c1.6,0,2.9-0.2,4.2-0.6
				c1.2-0.4,2.2-1.1,2.9-2.2c0.3-0.5,0.6-1.1,0.8-1.8c0.2-0.7,0.4-1.4,0.6-2.1C450.9,322.4,450.9,322.3,450.9,322z"/>
			<path class="st0" d="M480.5,270.3c11.6,0.7,23.2,1.3,34.7,2c3.2,0.2,4.9,0.3,8.1,0.4c0.7,0,1.5,0.1,2.1,0.2
				c0.7,0.1,1.2,0.5,1.5,1c0.1,0.2,0.2,0.5,0.2,0.9c0,0.3,0.1,0.7,0.2,1c0,0.5,0,0.8,0,1.3c0.1,0.6,0.1,1.2,0,1.8
				c0,0.6-0.1,1.3-0.1,1.8c0,0.7,0,1.3,0,1.9c0,0.6,0,1.2-0.1,1.8c-0.1,0.4,0,1.1-0.1,1.8c-0.1,0.9-0.5,1.6-1,1.9
				c-0.4,0.3-0.8,0.4-1.4,0.4c-0.6,0-1.1-0.1-1.8-0.2c-2.6-0.2-3.8-0.3-6.4-0.6c-6.7-0.6-10.1-0.9-16.8-1.5c-0.5,0-1.1-0.1-1.7-0.2
				c-0.6-0.1-1.3-0.2-1.9-0.2c-0.6,0-1.3,0-1.8,0.1c-0.6,0.1-1,0.2-1.2,0.4c-0.4,0.3-0.7,0.9-0.8,1.6c-0.1,0.7-0.2,1.5-0.2,2.5
				c0,2.6,0,3.9-0.1,6.5c0,1.3,0,2,0,3.3c0.1,0.6,0.2,1.2,0.4,1.6c0.1,0.4,0.3,0.8,0.6,1.1c0.4,0.3,0.8,0.6,1.3,0.7
				c0.5,0.1,1,0.2,1.6,0.3c2,0.2,3,0.4,5,0.6c6.4,0.8,9.6,1.2,16,2c0.4,0.1,1,0.1,1.6,0.1c0.7,0,1.3,0.1,1.9,0.2
				c0.6,0.1,1.2,0.3,1.7,0.4c0.5,0.1,0.9,0.4,1.2,0.6c0.3,0.3,0.5,0.8,0.6,1.6c0.1,0.8,0.2,1.6,0.2,2.4c0,0.9,0,1.7,0,2.6
				c0,0.9-0.1,1.7-0.1,2.3c0,0.6,0,1.1,0,1.7c0,0.6-0.1,1.1-0.2,1.4c-0.2,0.6-0.4,1.1-0.8,1.5c-0.3,0.2-0.7,0.3-1.3,0.3
				c-0.5,0-1.1-0.1-1.8-0.2c-0.6-0.1-1.3-0.2-1.9-0.4c-0.6-0.1-1.2-0.2-1.6-0.3c-7.2-1.1-10.8-1.7-18.1-2.8
				c-0.7-0.1-1.5-0.2-2.1-0.4c-0.7-0.1-1.3-0.2-1.9-0.2c-0.6,0-1.1,0.2-1.5,0.5c-0.4,0.3-0.7,0.7-0.9,1.4c-0.1,0.4-0.1,0.8-0.1,1.2
				c0,0.4,0,0.8,0,1.2c0,1.7,0,2.6,0,4.3c0,2.5,0,3.8,0,6.3c0,0.9,0,1.7,0.1,2.4c0.1,0.7,0.4,1.3,0.8,1.7c0.2,0.3,0.4,0.4,0.7,0.5
				c0.3,0.1,0.6,0.2,0.9,0.4c0.4,0.1,0.6,0.1,0.9,0.2c0.3,0.1,0.6,0.2,1,0.3c0.4,0,0.7,0.1,1,0.1c1.6,0.3,2.3,0.5,3.9,0.8
				c7,1.4,10.4,2.1,17.4,3.5c2,0.4,2.9,0.6,4.9,1c0.5,0.1,1,0.2,1.4,0.3c0.5,0.1,0.9,0.3,1.2,0.6c0.4,0.3,0.8,0.8,1,1.5
				c0.1,0.4,0.2,0.9,0.2,1.5c0,0.6,0,1.1,0,1.8c0,2.1,0,3.2,0,5.3c0,0.9,0,1.8-0.1,2.6c-0.1,0.8-0.4,1.3-0.8,1.6
				c-0.4,0.2-0.8,0.4-1.4,0.2c-0.6-0.1-1.2-0.3-1.9-0.4c-2.8-0.7-4.1-1-6.9-1.6c-9.1-2.1-18.2-4.2-27.4-6.2
				c-2.9-0.6-4.4-0.9-7.3-1.6c-0.9-0.2-1.6-0.4-2.3-0.6c-0.6-0.2-1.1-0.7-1.4-1.3c-0.2-0.5-0.4-1-0.4-1.7c0-0.7,0-1.3,0-1.9
				c0-3,0-4.5,0-7.5c0-9.9,0.1-19.8,0.2-29.8c0.1-9.7,0.2-14.7,0.3-24.3c0-2.7,0-4.1,0.1-6.8c0-0.7,0-1.3,0-2c0-0.7,0.2-1.2,0.4-1.5
				c0.3-0.4,0.7-0.8,1.4-1c0.1-0.1,0.2-0.1,0.4,0C480.2,270.4,480.3,270.4,480.5,270.3z M505.8,248.7c2.6,0,4,0,6.6,0
				c0.5,0,1.1,0,1.8,0c0.7,0,1.2,0.1,1.5,0.3c0.1,0.1,0.2,0.2,0.2,0.3c0,0.1,0.1,0.2,0.2,0.3c0.1,0.9-0.2,1.7-0.9,2.3
				c-0.7,0.7-1.2,1.3-1.6,1.8c-0.5,0.5-1,1-1.4,1.6c-0.5,0.5-0.9,1-1.4,1.5c-0.2,0.2-0.5,0.5-0.6,0.7c-0.2,0.3-0.5,0.5-0.6,0.6
				c-0.1,0.1-0.3,0.4-0.5,0.5c-0.3,0.4-0.6,0.7-0.9,1c-0.3,0.3-0.6,0.6-0.9,0.9c-0.1,0.1-0.2,0.3-0.2,0.3c0,0.1-0.1,0.2-0.2,0.3
				c-0.5,0.4-1,0.9-1.4,1.4c-0.5,0.5-1,0.9-1.7,1.2c-0.3,0.1-0.5,0.1-0.7,0.1c-0.2,0-0.5,0-0.8,0.1c-0.2,0-0.4,0.1-0.7,0
				c-0.3-0.1-0.6-0.1-0.8-0.1c-0.7,0-1.4-0.1-2.1-0.1c-0.7,0-1.3-0.3-1.7-0.6c-0.3-0.3-0.4-0.8-0.3-1.6c0.1-0.6,0.3-1.1,0.7-1.6
				c0.3-0.5,0.6-1,0.8-1.5c0.6-1,1.2-2,1.8-2.9c0.6-0.9,1.1-1.9,1.7-2.9c0.3-0.6,0.6-1.2,1-1.8c0.3-0.6,0.7-1.1,1.2-1.5
				c0.2-0.2,0.7-0.5,1.3-0.7c0.1-0.1,0.3-0.1,0.5,0C505.5,248.8,505.6,248.7,505.8,248.7z"/>
		</g>
	</g>
	<path class="st1" d="M201.1,381.8c2.7,0,4.9,2.2,4.9,4.9s-2.2,4.9-4.9,4.9c-2.7,0-4.9-2.2-4.9-4.9S198.4,381.8,201.1,381.8
		L201.1,381.8z"/>
	<path class="st1" d="M392.9,381.6c2.7,0,4.9,2.2,4.9,4.9s-2.2,4.9-4.9,4.9c-2.7,0-4.9-2.2-4.9-4.9S390.2,381.6,392.9,381.6
		L392.9,381.6z"/>
	<path class="st1" d="M478.1,231.4c0.9,0.4,1.3,1.5,0.9,2.5c-0.4,0.9-1.5,1.3-2.5,0.9c-0.9-0.4-1.3-1.5-0.9-2.5
		C476.1,231.4,477.2,231,478.1,231.4L478.1,231.4z"/>
	<path class="st1" d="M265.4,227c-1.4,0-2.6-1.2-2.6-2.6c0-1.4,1.2-2.6,2.6-2.6c1.4,0,2.6,1.2,2.6,2.6
		C268,225.8,266.9,227,265.4,227L265.4,227z"/>
	<path class="st1" d="M211.3,217.2c1.6,0,2.9,1.3,2.9,2.9c0,1.6-1.3,2.9-2.9,2.9c-1.6,0-2.9-1.3-2.9-2.9
		C208.4,218.5,209.7,217.2,211.3,217.2L211.3,217.2z"/>
	<path class="st1" d="M420.8,210.1c-2.5,0-4.5,2-4.5,4.5c0,2.5,2,4.5,4.5,4.5c2.5,0,4.5-2,4.5-4.5
		C425.3,212.1,423.3,210.1,420.8,210.1L420.8,210.1z"/>
	<path class="st1" d="M331,227c1.4,0,2.6-1.2,2.6-2.6c0-1.4-1.2-2.6-2.6-2.6c-1.4,0-2.6,1.2-2.6,2.6C328.4,225.8,329.6,227,331,227
		L331,227z"/>
	<path class="st1" d="M60.4,232c-1.2,0-2.2,1-2.2,2.2c0,1.2,1,2.2,2.2,2.2c1.2,0,2.2-1,2.2-2.2C62.6,233,61.6,232,60.4,232L60.4,232
		z"/>
	<path class="st0" d="M474.3,238.6h0.6c2.3,0,3.8-0.6,4.8-1.4c1.3-1.1,1.8-2.6,1.8-3.7v-0.2c0-1.3-0.5-2.4-1.2-3.1
		c-0.7-0.8-1.7-1.2-2.9-1.3l-0.2,0c-0.1,0-0.2,0-0.4,0l0,0c-1,0.1-1.7,0.6-2.1,1.1c-0.4,0.5-0.6,1.2-0.6,1.7l0,0.2
		c0.1,0.5,0.3,1,0.5,1.3c0.2,0.2,0.5,0.4,0.8,0.4l0.2,0v0c0.3,0,0.5-0.1,0.7-0.2l0,0c0.1,0,0.1-0.1,0.1-0.2v-0.1l2.6,0l0,0.1v0
		c0,1-0.5,1.7-1.2,2.2v0c-0.6,0.4-1.4,0.7-2.1,0.7h0l-0.3,0h0c-1.1,0-2.1-0.5-2.7-1.3c-0.7-0.8-1.1-1.8-1.2-2.9v-0.1l0-0.2v-0.1
		c0-1.1,0.4-2.4,1.2-3.4c0.8-1.1,2.1-1.9,3.9-2.1c0.2,0,0.4,0,0.6,0h0l0.2,0h0c1.9,0,3.6,0.8,4.8,2.1c1.2,1.2,1.9,3,1.9,4.9v0v0.3v0
		c0,1.7-0.7,4.1-2.8,5.7c-1.4,1.2-3.5,2-6.5,2l-0.6,0V238.6L474.3,238.6z M477.3,228.9L477.3,228.9L477.3,228.9L477.3,228.9z"/>
	<path class="st0" d="M221.5,207.9c2.7,1.4,5.3,2.6,7.7,3.4c2.3,0.8,4.5,1.2,6.4,1.2l0,0h0v0c6.6-0.1,12.1-2.1,15.9-5.7
		c3.8-3.5,6-8.4,5.9-14.2l0,0v0v0h0c-0.1-5.5-1.6-10.1-4.6-13.3c-3-3.2-7.4-5-13.2-4.9l0,0h0v0c-4.1,0-7.5,1.6-10,3.8
		c-2.8,2.5-4.4,5.9-4.5,9.3l0,0.3c-0.1,3.9,1.2,7.1,3.4,9.3c2.2,2.2,5.2,3.5,8.6,3.7l0.3,0c1.9,0,3.7-0.7,5.2-1.8
		c1.2-0.9,2.2-2.1,2.8-3.5c0.6-1.3,0.7-2.8,0.3-4.3c-0.4-1.6-1.5-3.2-3.4-4.8l1.7-2.1c2.4,1.9,3.7,4,4.3,6.1c0.5,2.1,0.3,4.1-0.5,6
		c-0.8,1.8-2,3.4-3.6,4.6c-2,1.5-4.4,2.4-6.9,2.3h0l-0.3,0h0c-4.1-0.2-7.8-1.7-10.4-4.5c-2.6-2.7-4.2-6.6-4.1-11.2v0l0-0.3v0
		c0.2-4,2.1-8.2,5.4-11.1c2.9-2.7,6.9-4.4,11.8-4.5l0,0h0v0c6.6-0.1,11.6,2,15.1,5.7c3.5,3.7,5.3,8.9,5.4,15.1l0,0v0v0h0
		c0.1,6.6-2.4,12.2-6.8,16.2c-4.3,4-10.4,6.3-17.7,6.4l0,0h0v0c-2.3,0-4.7-0.5-7.3-1.3c-2.5-0.9-5.2-2.1-8.1-3.6L221.5,207.9
		L221.5,207.9z"/>
	<path class="st0" d="M212.7,203.3l1,0.6c4.9,2.6,7.6,5.7,9,8.9c1.9,4.4,1.1,8.8-0.3,11.6c-1.1,2.3-2.8,4.2-4.7,5.4
		c-2,1.3-4.3,2-6.7,2c-2.9,0-5.7-1.1-7.8-2.9v0c-2-1.8-3.3-4.3-3.4-7.2v0l0-0.2v0c0-2.2,0.8-4.3,2.1-6h0c1.4-1.7,3.4-2.8,5.7-2.9h0
		l0.2,0h0c1.3,0,2.6,0.4,3.6,1c0.9,0.6,1.7,1.3,2.3,2.2h0c0.6,0.9,0.9,1.9,0.9,2.9v0c0,0.9-0.2,1.7-0.7,2.5l-2.3-1.3
		c0.2-0.4,0.3-0.8,0.3-1.2v0c0-0.5-0.2-1.1-0.5-1.5l0,0c-0.3-0.5-0.8-1-1.4-1.3c-0.6-0.4-1.4-0.6-2.2-0.6l-0.2,0
		c-1.5,0-2.9,0.8-3.8,1.9h0c-1,1.1-1.5,2.7-1.5,4.2l0,0.2c0.1,2.2,1,4,2.5,5.3v0c1.6,1.4,3.8,2.3,6,2.3c1.8,0,3.6-0.6,5.2-1.6
		c1.6-1,2.9-2.5,3.8-4.4c1.1-2.3,1.8-5.8,0.3-9.3c-1.1-2.6-3.5-5.3-7.8-7.6l-1-0.6L212.7,203.3L212.7,203.3z"/>
	<path class="st0" d="M139.3,230.2c0.7,0,1.3,0.6,1.3,1.3c0,0.7-0.6,1.3-1.3,1.3h-0.6c-1.7,0-3.3-0.4-4.4-1.1
		c-1.2-0.8-1.9-2-1.9-3.6v0c0-0.2,0-0.4,0-0.5c0.1-1.1,0.5-2,1.2-2.8c0.7-0.7,1.8-1.2,3-1.2h0c0.2,0,0.4,0,0.6,0
		c0.7,0.1,1.3,0.7,1.2,1.4c-0.1,0.7-0.7,1.3-1.4,1.2l-0.3,0h0c-0.5,0-0.9,0.2-1.2,0.4c-0.3,0.3-0.4,0.7-0.5,1.1l0,0.3
		c0,0.6,0.3,1.1,0.8,1.4c0.7,0.5,1.7,0.7,2.9,0.7L139.3,230.2L139.3,230.2z"/>
	<polygon class="st0" points="120,238.6 475,238.6 475,241.3 120,241.3 120,238.6 	"/>
	<path class="st0" d="M120.7,241.3l-0.6,0c-3,0-5.1-0.8-6.5-2c-2.1-1.7-2.8-4-2.8-5.7v0v-0.3v0c0-1.9,0.8-3.6,1.9-4.9
		c1.2-1.3,2.9-2.1,4.8-2.1h0l0.2,0h0c0.2,0,0.4,0,0.6,0c1.8,0.2,3.1,1,3.9,2.1c0.8,1.1,1.2,2.4,1.2,3.4v0.1l0,0.2l0,0.1
		c-0.1,1.1-0.5,2.1-1.2,2.9c-0.7,0.8-1.6,1.2-2.7,1.3h-0.1l-0.3,0h-0.1c-0.8,0-1.5-0.3-2.1-0.7l0,0c-0.7-0.5-1.2-1.3-1.2-2.2v0
		l0-0.1l2.6,0v0.1c0,0.1,0,0.1,0.1,0.2l0,0c0.2,0.1,0.4,0.2,0.7,0.2v0l0.2,0c0.3,0,0.6-0.2,0.8-0.4c0.3-0.3,0.5-0.8,0.5-1.3l0-0.2
		c0-0.5-0.2-1.1-0.6-1.7c-0.4-0.6-1.1-1-2.1-1.1h0c-0.1,0-0.3,0-0.4,0l-0.2,0c-1.2,0-2.2,0.5-2.9,1.3c-0.7,0.8-1.2,1.9-1.2,3.1
		l0,0.2c0,1.1,0.5,2.6,1.8,3.7c1,0.8,2.6,1.4,4.8,1.4h0.6V241.3L120.7,241.3z M117.8,228.9L117.8,228.9L117.8,228.9L117.8,228.9z"/>
	<path class="st0" d="M297.5,148.9c11.1,0,21.1,4.5,28.4,11.7c7.3,7.3,11.7,17.3,11.7,28.4s-4.5,21.1-11.7,28.4
		c-7.3,7.3-17.3,11.7-28.4,11.7c-11.1,0-21.1-4.5-28.4-11.7c-7.3-7.3-11.7-17.3-11.7-28.4s4.5-21.1,11.7-28.4
		C276.4,153.4,286.4,148.9,297.5,148.9L297.5,148.9z M324,162.6c-6.8-6.8-16.1-11-26.5-11c-10.3,0-19.7,4.2-26.5,11
		c-6.8,6.8-11,16.1-11,26.5c0,10.3,4.2,19.7,11,26.5c6.8,6.8,16.1,11,26.5,11c10.3,0,19.7-4.2,26.5-11c6.8-6.8,11-16.1,11-26.5
		C335,178.7,330.8,169.3,324,162.6L324,162.6z"/>
	<path class="st0" d="M262.8,224.4c0-2,0.8-3.8,2-5.1c1.3-1.4,3.1-2.3,5-2.3c0.5,0,0.9,0,1.3,0.1c1.8,0.3,3.3,1.4,4.4,2.8
		c1,1.4,1.7,3.2,1.7,5v0c0,0.6,0,1.1-0.1,1.7c-0.3,1.9-1.3,3.7-2.7,4.9c-1.4,1.2-3.2,1.9-5.3,2c-1.5,0-3.2-0.2-4.8-0.6
		c-1.9-0.5-3.8-1.2-4.9-1.8l-65-34.4c-2.7-1.4-5.5-2.8-8.1-3.8c-2.5-0.9-4.8-1.5-6.7-1.5l-0.2,0c-6,0.1-11.2,2.1-15,5.7
		c-3.7,3.5-6,8.5-5.9,14.7l0,0.2c0.1,5.5,2.1,10,5.3,13.2c3.3,3.3,7.9,5.1,13.1,5.1c4.2,0,7.7-1.6,10.4-3.9c2.9-2.5,4.7-5.9,4.8-9.2
		c0-0.6,0-1.2,0-1.7c-0.1-3.7-1.4-6.6-3.3-8.6c-2-2-4.7-3.2-7.8-3.3c-0.4,0-0.9,0-1.3,0h0c-2.4,0.1-4.4,1.3-5.7,3
		c-0.6,0.7-1,1.6-1.3,2.4c-0.3,0.9-0.4,1.8-0.4,2.6c0.1,1.7,0.8,3.3,2.3,4.5l-1.6,2.1c-2.2-1.7-3.2-4.1-3.3-6.5
		c0-1.2,0.2-2.4,0.5-3.6c0.4-1.2,1-2.3,1.8-3.2c1.8-2.2,4.5-3.9,7.7-4h0c0.5,0,1.1,0,1.6,0c3.8,0.2,7.1,1.6,9.6,4.1
		c2.4,2.5,3.9,6,4.1,10.4c0,0.6,0,1.3,0,1.9v0c-0.2,4-2.3,8.1-5.7,11.1c-3.1,2.7-7.3,4.5-12.1,4.5c-5.9,0.1-11.2-2.1-15-5.8
		c-3.7-3.7-6-8.9-6.1-15.1l0-0.2v0c-0.1-6.9,2.5-12.7,6.8-16.6c4.2-4,10.1-6.3,16.8-6.4h0l0.2,0h0c2.3,0,4.9,0.6,7.7,1.7
		c2.7,1,5.6,2.4,8.4,3.9l65,34.4c1,0.5,2.6,1.1,4.3,1.5c1.4,0.3,2.9,0.6,4.1,0.5c1.4,0,2.7-0.5,3.6-1.3c1-0.8,1.6-2,1.9-3.4
		c0.1-0.4,0.1-0.8,0.1-1.2v0c0-1.3-0.5-2.5-1.2-3.5c-0.7-0.9-1.6-1.6-2.7-1.8h0c-0.3,0-0.5-0.1-0.8-0.1c-1.2,0-2.3,0.6-3.2,1.5
		c-0.8,0.8-1.3,2-1.3,3.3L262.8,224.4L262.8,224.4z"/>
	<path class="st0" d="M331,224.3c0-1.3-0.5-2.4-1.3-3.3c-0.8-0.9-2-1.5-3.2-1.5c-0.3,0-0.5,0-0.8,0.1h0c-1.1,0.2-2,0.9-2.7,1.8
		c-0.7,1-1.1,2.2-1.2,3.5v0c0,0.4,0,0.8,0.1,1.2c0.2,1.3,0.9,2.5,1.9,3.4c0.9,0.8,2.2,1.3,3.6,1.3c1.2,0,2.7-0.2,4.1-0.5
		c1.7-0.4,3.3-1,4.3-1.5l65-34.4c2.8-1.5,5.7-2.9,8.4-3.9c2.8-1.1,5.4-1.7,7.7-1.7l0,0l0.2,0h0c6.6,0.1,12.5,2.4,16.8,6.4
		c4.3,4,6.8,9.7,6.8,16.6v0v0.2c-0.1,6.2-2.4,11.4-6.1,15.1c-3.8,3.8-9.1,5.9-15,5.8c-4.8-0.1-9-1.9-12.1-4.5
		c-3.4-3-5.5-7.1-5.7-11.1v0c0-0.7,0-1.3,0-1.9c0.1-4.4,1.6-7.9,4.1-10.4c2.4-2.5,5.8-3.9,9.6-4.1c0.5,0,1,0,1.6,0h0
		c3.2,0.1,5.9,1.7,7.7,4c0.8,1,1.4,2.1,1.8,3.2c0.4,1.2,0.6,2.4,0.5,3.6c-0.1,2.4-1.1,4.8-3.3,6.5L422,216c1.5-1.2,2.2-2.8,2.3-4.5
		c0-0.9-0.1-1.8-0.4-2.6c-0.3-0.9-0.8-1.7-1.3-2.4c-1.3-1.7-3.3-2.9-5.7-3h0c-0.4,0-0.9,0-1.3,0c-3.1,0.2-5.9,1.3-7.8,3.3
		c-2,2-3.2,5-3.3,8.6c0,0.6,0,1.1,0,1.7c0.2,3.3,1.9,6.7,4.8,9.2c2.7,2.3,6.2,3.8,10.4,3.9c5.2,0.1,9.8-1.8,13.1-5.1
		c3.2-3.2,5.2-7.8,5.3-13.2v-0.2c0.1-6.2-2.2-11.2-5.9-14.7c-3.8-3.5-9.1-5.6-15-5.7l-0.2,0c-1.9,0-4.2,0.6-6.7,1.5
		c-2.6,1-5.3,2.3-8.1,3.8l-65,34.4c-1.1,0.6-3,1.3-4.9,1.8c-1.6,0.4-3.3,0.6-4.8,0.6c-2.1-0.1-3.9-0.8-5.3-2c-1.4-1.2-2.4-3-2.7-4.9
		c-0.1-0.6-0.1-1.1-0.1-1.7v0c0.1-1.8,0.7-3.6,1.7-5c1.1-1.4,2.6-2.5,4.4-2.8c0.4-0.1,0.9-0.1,1.3-0.1c1.9,0.1,3.7,0.9,5,2.3
		c1.2,1.3,2,3.1,2,5.1L331,224.3L331,224.3z"/>
	<path class="st0" d="M376.2,210.3c-2.8,1.5-5.5,2.7-8.1,3.6c-2.6,0.9-5,1.3-7.3,1.3v0h0l0,0c-7.3-0.1-13.4-2.4-17.7-6.4
		c-4.3-4-6.8-9.6-6.8-16.2h0v0v0l0,0c0.1-6.2,1.9-11.5,5.4-15.1c3.5-3.7,8.6-5.8,15.1-5.7v0h0l0,0c4.8,0,8.8,1.8,11.8,4.5
		c3.3,3,5.2,7.1,5.4,11.1v0v0.3v0c0.1,4.7-1.5,8.5-4.1,11.2c-2.6,2.7-6.3,4.3-10.4,4.5l0,0l-0.3,0h0c-2.5,0.1-4.9-0.8-6.9-2.3
		c-1.6-1.2-2.8-2.8-3.6-4.6c-0.8-1.8-1-3.9-0.4-6c0.6-2.1,1.9-4.2,4.3-6.1l1.7,2.1c-1.9,1.5-2.9,3.2-3.4,4.8c-0.4,1.5-0.2,3,0.3,4.3
		c0.6,1.4,1.5,2.6,2.7,3.5c1.5,1.1,3.4,1.8,5.2,1.8l0.3,0c3.4-0.1,6.5-1.4,8.6-3.7c2.2-2.2,3.4-5.4,3.4-9.3l0-0.3
		c-0.1-3.3-1.7-6.8-4.5-9.3c-2.5-2.3-5.9-3.8-10-3.8v0h0l0,0c-5.8-0.1-10.2,1.8-13.2,4.9c-3,3.2-4.6,7.8-4.6,13.3l0,0v0v0v0
		c0,5.8,2.1,10.7,5.9,14.2c3.8,3.5,9.4,5.6,15.9,5.7v0h0l0,0c1.9,0,4.1-0.4,6.4-1.2c2.4-0.8,5-2,7.7-3.4L376.2,210.3L376.2,210.3z"
		/>
	<path class="st0" d="M385,205.6l-1.1,0.6c-4.3,2.3-6.6,5-7.8,7.6c-1.5,3.6-0.9,7.1,0.3,9.3c0.9,1.9,2.3,3.4,3.8,4.4
		c1.6,1,3.4,1.6,5.2,1.6c2.2,0,4.4-0.8,6-2.3v0c1.5-1.3,2.4-3.2,2.5-5.3l0-0.2c0-1.6-0.6-3.1-1.5-4.2l0,0c-0.9-1.1-2.3-1.9-3.8-1.9
		l-0.2,0c-0.8,0-1.6,0.2-2.2,0.6c-0.6,0.3-1.1,0.8-1.4,1.3l0,0c-0.3,0.5-0.5,1-0.5,1.5v0c0,0.4,0.1,0.8,0.3,1.2l-2.3,1.3
		c-0.5-0.8-0.7-1.7-0.7-2.5v0c0-1,0.3-2.1,0.9-2.9l0,0c0.5-0.9,1.3-1.6,2.3-2.2c1-0.6,2.3-1,3.6-1h0l0.2,0h0
		c2.3,0.1,4.3,1.2,5.7,2.9l0,0c1.4,1.6,2.2,3.8,2.2,6v0l0,0.2v0c-0.1,2.9-1.4,5.4-3.4,7.2v0c-2.1,1.9-4.9,2.9-7.8,2.9
		c-2.4,0-4.7-0.7-6.7-2c-1.9-1.3-3.6-3.1-4.7-5.4c-1.4-2.8-2.2-7.1-0.3-11.6c1.4-3.1,4.1-6.3,9-8.9l1-0.6L385,205.6L385,205.6z"/>
	<polygon class="st0" points="139.3,230.2 176.9,230.2 176.9,232.9 139.3,232.9 139.3,230.2 	"/>
	<polygon class="st0" points="421.6,230.2 459.2,230.2 459.2,232.9 421.6,232.9 421.6,230.2 	"/>
	<path class="st0" d="M459,232.9c-0.7,0-1.3-0.6-1.3-1.3c0-0.7,0.6-1.3,1.3-1.3l0.6,0c1.2,0,2.2-0.2,2.9-0.7
		c0.5-0.3,0.7-0.8,0.8-1.4l0-0.3c0-0.5-0.2-0.9-0.5-1.1c-0.3-0.3-0.7-0.4-1.2-0.4h0l-0.3,0c-0.7,0.1-1.4-0.5-1.4-1.2
		c-0.1-0.7,0.5-1.4,1.2-1.4c0.2,0,0.4,0,0.6,0h0c1.3,0,2.3,0.5,3,1.2c0.7,0.7,1.2,1.7,1.3,2.8c0,0.2,0,0.4,0,0.5v0
		c0,1.6-0.7,2.8-1.9,3.6c-1.1,0.8-2.6,1.1-4.4,1.1H459L459,232.9z"/>
	<path class="st0" d="M62,241.3c-0.7,0-1.3-0.6-1.3-1.3c0-0.7,0.6-1.3,1.3-1.3h45.6c0.7,0,1.3,0.6,1.3,1.3c0,0.7-0.6,1.3-1.3,1.3H62
		L62,241.3z"/>
	<path class="st0" d="M62.6,238.6c0.7,0,1.3,0.6,1.3,1.3c0,0.7-0.6,0.5-1.3,0.5l-0.6,0.8c-1.7,0-3.3-0.4-4.4-1.1
		c-1.2-0.8-1.9-2-1.9-3.6v0c0-0.2,0-0.4,0-0.5c0.1-1.1,0.5-2,1.2-2.8c0.7-0.7,1.8-1.2,3-1.2h0c0.2,0,0.4,0,0.6,0
		c0.7,0.1,1.3,0.7,1.2,1.4c-0.1,0.7-0.7,1.3-1.4,1.2l-0.3,0h0c-0.5,0-0.9,0.2-1.2,0.4c-0.3,0.3-0.4,0.7-0.5,1.1l0,0.3
		c0,0.6,0.3,1.1,0.8,1.4c0.7,0.5,1.7,0.7,2.9,0.7H62.6L62.6,238.6z"/>
	<path class="st0" d="M533.3,238.6c0.7,0,1.3,0.6,1.3,1.3c0,0.7-0.6,1.3-1.3,1.3h-45.6c-0.7,0-1.3-0.6-1.3-1.3
		c0-0.7,0.6-1.3,1.3-1.3H533.3L533.3,238.6z"/>
	<path class="st0" d="M532.7,241.3c-0.7,0-1.3-0.6-1.3-1.3c0-0.7,0.6-1.3,1.3-1.3h0.6c1.2,0,2.2-0.2,2.9-0.7
		c0.4-0.3,0.7-0.8,0.8-1.4l0-0.3c0-0.5-0.2-0.9-0.5-1.1c-0.3-0.3-0.7-0.4-1.2-0.4h0l-0.3,0c-0.7,0.1-1.4-0.5-1.4-1.2
		c-0.1-0.7,0.5-1.4,1.2-1.4c0.2,0,0.4,0,0.6,0h0c1.3,0,2.3,0.5,3,1.2c0.7,0.7,1.2,1.7,1.3,2.8c0,0.2,0,0.4,0,0.5v0
		c0,1.6-0.7,2.8-1.9,3.6c-1.1,0.8-2.6,1.1-4.4,1.1L532.7,241.3L532.7,241.3z"/>
	<path class="st1" d="M69.4,231.6c1.2,0,2.2,1,2.2,2.3c0,1.2-1,2.2-2.3,2.2c-1.2,0-2.2-1-2.2-2.3C67.1,232.6,68.1,231.6,69.4,231.6
		L69.4,231.6z"/>
	<path class="st1" d="M104,231.6c1.2,0,2.2,1,2.2,2.3c0,1.2-1,2.2-2.3,2.2c-1.2,0-2.2-1-2.2-2.3C101.7,232.6,102.7,231.6,104,231.6
		L104,231.6z"/>
	<path class="st1" d="M97,231.6c1.2,0,2.2,1,2.2,2.3c0,1.2-1,2.2-2.3,2.2c-1.2,0-2.2-1-2.2-2.3C94.8,232.6,95.8,231.6,97,231.6
		L97,231.6z"/>
	<path class="st1" d="M90.1,231.6c1.2,0,2.2,1,2.2,2.3c0,1.2-1,2.2-2.3,2.2c-1.2,0-2.2-1-2.2-2.3C87.9,232.6,88.9,231.6,90.1,231.6
		L90.1,231.6z"/>
	<path class="st1" d="M83.2,231.6c1.2,0,2.2,1,2.2,2.3c0,1.2-1,2.2-2.3,2.2c-1.2,0-2.2-1-2.2-2.3C81,232.6,82,231.6,83.2,231.6
		L83.2,231.6z"/>
	<path class="st1" d="M76.3,231.6c1.2,0,2.2,1,2.2,2.3c0,1.2-1,2.2-2.3,2.2c-1.2,0-2.2-1-2.2-2.3C74.1,232.6,75.1,231.6,76.3,231.6
		L76.3,231.6z"/>
	<path class="st1" d="M491.5,231.6c1.2,0,2.2,1,2.2,2.3c0,1.2-1,2.2-2.3,2.2c-1.2,0-2.2-1-2.2-2.3
		C489.2,232.6,490.2,231.6,491.5,231.6L491.5,231.6z"/>
	<path class="st1" d="M526.1,231.6c1.2,0,2.2,1,2.2,2.3c0,1.2-1,2.2-2.3,2.2c-1.2,0-2.2-1-2.2-2.3
		C523.8,232.6,524.8,231.6,526.1,231.6L526.1,231.6z"/>
	<path class="st1" d="M519.1,231.6c1.2,0,2.2,1,2.2,2.3c0,1.2-1,2.2-2.3,2.2c-1.2,0-2.2-1-2.2-2.3
		C516.9,232.6,517.9,231.6,519.1,231.6L519.1,231.6z"/>
	<path class="st1" d="M512.2,231.6c1.2,0,2.2,1,2.2,2.3c0,1.2-1,2.2-2.3,2.2c-1.2,0-2.2-1-2.1-2.3C510,232.6,511,231.6,512.2,231.6
		L512.2,231.6z"/>
	<path class="st1" d="M505.3,231.6c1.2,0,2.2,1,2.1,2.3c0,1.2-1,2.2-2.3,2.2c-1.2,0-2.2-1-2.2-2.3
		C503.1,232.6,504.1,231.6,505.3,231.6L505.3,231.6z"/>
	<path class="st1" d="M498.4,231.6c1.2,0,2.2,1,2.2,2.3c0,1.2-1,2.2-2.3,2.2c-1.2,0-2.2-1-2.2-2.3
		C496.1,232.6,497.2,231.6,498.4,231.6L498.4,231.6z"/>
	<path class="st1" d="M385.1,217.2c1.6,0,2.9,1.3,2.9,2.9c0,1.6-1.3,2.9-2.9,2.9c-1.6,0-2.9-1.3-2.9-2.9
		C382.2,218.5,383.5,217.2,385.1,217.2L385.1,217.2z"/>
	<path class="st1" d="M175.7,210.1c-2.5,0-4.5,2-4.5,4.5c0,2.5,2,4.5,4.5,4.5c2.5,0,4.5-2,4.5-4.5
		C180.2,212.1,178.2,210.1,175.7,210.1L175.7,210.1z"/>
	<path class="st1" d="M241.6,183.7c-2.5,0-4.5,2-4.5,4.5c0,2.5,2,4.5,4.5,4.5c2.5,0,4.5-2,4.5-4.5
		C246.1,185.8,244.1,183.7,241.6,183.7L241.6,183.7z"/>
	<path class="st1" d="M354.8,183.7c-2.5,0-4.5,2-4.5,4.5c0,2.5,2,4.5,4.5,4.5c2.5,0,4.5-2,4.5-4.5
		C359.3,185.8,357.3,183.7,354.8,183.7L354.8,183.7z"/>
	<path class="st1" d="M137.2,223.6c-1.3,0-2.4,1.1-2.4,2.4c0,1.3,1.1,2.4,2.4,2.4c1.3,0,2.4-1.1,2.4-2.4
		C139.6,224.7,138.5,223.6,137.2,223.6L137.2,223.6z"/>
	<path class="st1" d="M461,223.6c-1.3,0-2.4,1.1-2.4,2.4c0,1.3,1.1,2.4,2.4,2.4c1.3,0,2.4-1.1,2.4-2.4
		C463.4,224.7,462.3,223.6,461,223.6L461,223.6z"/>
	<path class="st1" d="M118.4,231.4c0.9,0.4,1.3,1.5,0.9,2.5c-0.4,0.9-1.5,1.3-2.5,0.9c-0.9-0.4-1.3-1.5-0.9-2.5
		C116.4,231.4,117.5,231,118.4,231.4L118.4,231.4z"/>
	<path class="st1" d="M534.7,232c-1.2,0-2.2,1-2.2,2.2c0,1.2,1,2.2,2.2,2.2c1.2,0,2.2-1,2.2-2.2C537,233,536,232,534.7,232
		L534.7,232z"/>
	<circle class="st2" cx="297.5" cy="189.6" r="34.8"/>
	<g>
		<path class="st1" d="M208.4,416.5c1.1,0,2-0.9,1.9-2c0-1.1-0.9-2-2-1.9c-1.1,0-2,0.9-1.9,2C206.4,415.6,207.3,416.5,208.4,416.5
			L208.4,416.5z"/>
		<path class="st1" d="M240.5,416.5c1.1,0,2-0.9,1.9-2c0-1.1-0.9-2-2-1.9c-1.1,0-2,0.9-1.9,2C238.5,415.6,239.4,416.5,240.5,416.5
			L240.5,416.5z"/>
		<path class="st1" d="M234.1,416.5c1.1,0,2-0.9,1.9-2c0-1.1-0.9-2-2-1.9c-1.1,0-2,0.9-1.9,2C232.1,415.6,233,416.5,234.1,416.5
			L234.1,416.5z"/>
		<path class="st1" d="M227.6,416.5c1.1,0,2-0.9,1.9-2c0-1.1-0.9-2-2-1.9c-1.1,0-2,0.9-1.9,2C225.6,415.6,226.5,416.5,227.6,416.5
			L227.6,416.5z"/>
		<path class="st1" d="M221.2,416.5c1.1,0,2-0.9,1.9-2c0-1.1-0.9-2-2-1.9c-1.1,0-2,0.9-1.9,2C219.2,415.6,220.1,416.5,221.2,416.5
			L221.2,416.5z"/>
		<path class="st1" d="M214.8,416.5c1.1,0,2-0.9,1.9-2c0-1.1-0.9-2-2-1.9c-1.1,0-2,0.9-1.9,2C212.8,415.6,213.7,416.5,214.8,416.5
			L214.8,416.5z"/>
		<path class="st1" d="M387.1,416.5c-1.1,0-2-0.9-1.9-2c0-1.1,0.9-2,2-1.9c1.1,0,2,0.9,1.9,2C389.2,415.6,388.2,416.5,387.1,416.5
			L387.1,416.5z"/>
		<path class="st1" d="M354.8,416.5c-1.1,0-2-0.9-1.9-2c0-1.1,0.9-2,2-1.9c1.1,0,2,0.9,1.9,2C356.8,415.6,355.9,416.5,354.8,416.5
			L354.8,416.5z"/>
		<path class="st1" d="M361.3,416.5c-1.1,0-2-0.9-1.9-2c0-1.1,0.9-2,2-1.9c1.1,0,2,0.9,1.9,2C363.3,415.6,362.3,416.5,361.3,416.5
			L361.3,416.5z"/>
		<path class="st1" d="M367.7,416.5c-1.1,0-2-0.9-1.9-2c0-1.1,0.9-2,2-1.9c1.1,0,2,0.9,1.9,2C369.7,415.6,368.8,416.5,367.7,416.5
			L367.7,416.5z"/>
		<path class="st1" d="M374.2,416.5c-1.1,0-2-0.9-1.9-2c0-1.1,0.9-2,2-1.9c1.1,0,2,0.9,1.9,2C376.2,415.6,375.3,416.5,374.2,416.5
			L374.2,416.5z"/>
		<path class="st1" d="M380.7,416.5c-1.1,0-2-0.9-1.9-2c0-1.1,0.9-2,2-1.9c1.1,0,2,0.9,1.9,2C382.7,415.6,381.8,416.5,380.7,416.5
			L380.7,416.5z"/>
		<path class="st0" d="M197.8,404.8c-0.4,0-0.7-0.4-0.7-0.8c0-0.4,0.3-0.8,0.7-0.8h199.6c0.4,0,0.6,0.4,0.6,0.8
			c0,0.4-0.3,0.8-0.6,0.8H197.8L197.8,404.8z"/>
		<path class="st1" d="M396.4,409.2c-1-0.7-2.4-1-3.9-1h0h-0.5h-40.4c-0.7,0-1.2,0.5-1.2,1.2c0,0.7,0.5,1.2,1.2,1.2h40.4h0.5h0
			c1.1,0,2,0.2,2.6,0.6c0.4,0.3,0.7,0.7,0.7,1.3l0,0.3c0,0.3-0.2,0.6-0.4,0.8c-0.3-0.6-0.9-1-1.7-1c-1.1,0-2,0.8-2,1.9
			c0,1.1,0.8,2,1.9,2c0,0,0.1,0,0.1,0c0,0,0,0,0,0c0.2,0,0.3,0,0.5,0h0c1.1,0,2.1-0.4,2.7-1.1c0.7-0.7,1-1.5,1.1-2.5
			c0-0.2,0-0.3,0-0.5v0C398.1,411,397.5,409.9,396.4,409.2z"/>
		<path class="st1" d="M243.8,408.2h-40.4h-0.5h0c-1.6,0-2.9,0.3-3.9,1c-1.1,0.7-1.7,1.8-1.7,3.2v0c0,0.2,0,0.3,0,0.5
			c0.1,1,0.5,1.8,1.1,2.5c0.7,0.7,1.6,1.1,2.7,1.1h0c0.2,0,0.4,0,0.5,0c0,0,0,0,0,0c0.1,0,0.2,0.1,0.3,0.1c1.1,0,2-0.9,1.9-2
			c0-1.1-0.9-2-2-1.9c-0.8,0-1.5,0.5-1.8,1.2c0,0-0.1,0-0.1,0c-0.2-0.3-0.4-0.6-0.4-1l0-0.3c0-0.6,0.3-1,0.7-1.3
			c0.6-0.4,1.5-0.6,2.6-0.6h0h0.5h40.4c0.7,0,1.2-0.5,1.2-1.2C244.9,408.7,244.4,408.2,243.8,408.2z"/>
		<g>
			<path class="st1" d="M302.7,409.7c-2.5,0.4-4.7,1-6.3,2.4c-1.4-1.3-3.6-1.9-6.3-2.4H302.7L302.7,409.7z"/>
			<path class="st1" d="M288.4,409.7c-1.8,0.3-3.4,0.7-4.5,1.7c-1-0.9-2.6-1.4-4.5-1.7H288.4L288.4,409.7z"/>
			<path class="st1" d="M313.5,409.7c-1.8,0.3-3.4,0.7-4.5,1.7c-1-0.9-2.6-1.4-4.5-1.7H313.5L313.5,409.7z"/>
			<path class="st1" d="M346.1,409.4c-0.9-0.7-2.2-1.2-4-1.2H342h-0.2H251h-0.1h-0.2c-1.8,0-3.1,0.5-4,1.2c-1.3,1-1.7,2.4-1.7,3.5v0
				v0.2v0c0,1.2,0.5,2.2,1.2,3c0.7,0.8,1.7,1.3,2.9,1.3h0h0.1h0c0.1,0,0.3,0,0.4,0c1.1-0.1,1.9-0.6,2.4-1.3c0.5-0.6,0.7-1.4,0.7-2.1
				v0l0-0.1l0,0c-0.1-0.7-0.3-1.3-0.7-1.8c-0.4-0.5-1-0.7-1.7-0.8h0l-0.2,0h0c-0.5,0-0.9,0.2-1.3,0.4c-0.4,0.3-0.7,0.8-0.7,1.4v0
				v0.1h0.1c0,0.4,0.1,0.9,0.5,1c0.5,0.3,1.2,0,1.4-0.5c0.1-0.3,0.1-0.6,0-0.8h0l0.1,0c0.2,0,0.4,0.1,0.5,0.2
				c0.2,0.2,0.3,0.5,0.3,0.8l0,0.1c0,0.3-0.1,0.7-0.4,1c-0.3,0.3-0.7,0.6-1.3,0.7h0c-0.1,0-0.2,0-0.2,0H249c-0.7,0-1.3-0.3-1.8-0.8
				c-0.4-0.5-0.7-1.2-0.7-1.9v-0.1c0-0.7,0.3-1.6,1.1-2.3c0.6-0.5,1.6-0.8,3-0.8h0.2h0.1h90.8h0.2h0.1c1.4,0,2.3,0.3,3,0.8
				c0.8,0.7,1.1,1.6,1.1,2.3v0.1c0,0.8-0.3,1.4-0.7,1.9c-0.4,0.5-1.1,0.8-1.8,0.8h-0.1c-0.1,0-0.1,0-0.2,0c-0.6-0.1-1-0.3-1.3-0.7
				c-0.3-0.3-0.4-0.7-0.4-1l0-0.1c0-0.3,0.2-0.6,0.3-0.8c0.1-0.1,0.3-0.2,0.5-0.2l0.1,0c0,0,0,0,0,0c-0.2,0.5,0,1.1,0.5,1.3
				c0.5,0.3,1.2,0,1.4-0.5c0.1-0.2,0-0.3,0-0.5h0.1V413v0c0-0.1,0-0.1-0.1-0.2c0,0,0,0,0,0c-0.1-0.5-0.3-0.9-0.7-1.2
				c-0.4-0.3-0.8-0.4-1.3-0.4h0l-0.2,0h0c-0.7,0-1.2,0.3-1.7,0.8c-0.4,0.5-0.7,1.1-0.7,1.8l0,0l0,0.1v0c0,0.6,0.2,1.4,0.7,2.1
				c0.5,0.6,1.3,1.2,2.4,1.3c0.1,0,0.2,0,0.4,0h0h0.1h0c1.2,0,2.2-0.5,2.9-1.3c0.7-0.8,1.1-1.8,1.2-3v0v-0.2v0
				C347.8,411.8,347.4,410.4,346.1,409.4z"/>
			<g>
				<g>
					<path class="st0" d="M288.1,425.3c-0.1,0-0.1,0-0.2,0c-3.2-0.1-5.2-3-5.1-5.7c0-2.4,1.5-4.6,3.8-5.7c2.2-1.1,6.7-1.5,9.8,3.6
						c3.1-5.1,7.6-4.7,9.8-3.6c2.3,1.1,3.8,3.3,3.8,5.7c0,2.7-1.9,5.6-5.1,5.7c-1.3,0-2.5-0.4-3.4-1.3c-0.8-0.8-1.2-1.8-1.3-2.8
						c0-1.3,0.7-2.5,1.7-3.1c0.9-0.5,1.9-0.5,2.8,0l-0.8,1.4c-0.5-0.3-0.9-0.1-1.1,0c-0.6,0.3-0.9,1-0.9,1.7c0,0.8,0.4,1.4,0.7,1.7
						c0.6,0.5,1.4,1,2.2,0.8c2.3-0.1,3.6-2.1,3.6-4.1c0-1.8-1.1-3.4-2.9-4.3c-0.8-0.4-5.1-2.1-8.1,3.7l-1,1.9l-1-1.9
						c-3.1-5.8-7.3-4.1-8.1-3.7c-1.8,0.9-2.9,2.5-2.9,4.3c0,1.9,1.3,4,3.6,4.1c0.8,0.1,1.6-0.3,2.2-0.8c0.3-0.3,0.7-0.9,0.8-1.7
						c0-0.7-0.4-1.4-0.9-1.7c-0.2-0.1-0.7-0.3-1.1,0l-0.8-1.4c0.8-0.5,1.9-0.5,2.7,0c1.1,0.6,1.7,1.8,1.7,3.1c0,1.1-0.5,2.1-1.2,2.8
						C290.4,424.8,289.3,425.3,288.1,425.3z"/>
				</g>
				<path class="st1" d="M290.2,419.5c0-0.9-0.7-1.6-1.6-1.6c-0.9,0-1.6,0.7-1.6,1.6c0,0.9,0.7,1.6,1.6,1.6
					C289.5,421,290.2,420.3,290.2,419.5L290.2,419.5z"/>
				<path class="st1" d="M299,430.5c-2.4,3.2-2,10.1-2.6,10.1c-0.7,0-0.3-7.1-2.7-10.1c1.7-0.5,2.2-1.7,2.7-1.7
					C296.8,428.8,297.3,430,299,430.5L299,430.5z"/>
				<g>
					<path class="st0" d="M297.2,431.3h-1.6v-12h1.6V431.3z M277.7,421.8c-0.5,0-1.1-0.1-1.6-0.3c-2-1-2.8-3.4-1.8-5.5
						c0.7-1.6,2.4-2.7,4.3-2.8c2,0,5.3,1.1,5.7,6l0,0.4l-1.6,0.1l0-0.4c-0.3-4.4-3.3-4.5-4-4.5c-1.3,0.1-2.4,0.8-2.9,1.8
						c-0.5,1.2-0.3,2.7,1.1,3.4c0.5,0.2,1,0.2,1.5,0.1c0.3-0.1,0.6-0.3,0.8-0.8c0.2-0.5,0.1-0.9-0.1-1.1c-0.1-0.1-0.3-0.3-0.5-0.3
						l-0.2-1.6c0.8-0.1,1.5,0.2,2,0.9c0.6,0.8,0.7,1.8,0.3,2.8c-0.3,0.7-1,1.3-1.8,1.6C278.6,421.7,278.1,421.8,277.7,421.8z
						 M315,421.8c-0.4,0-0.8-0.1-1.2-0.2c-0.8-0.3-1.4-0.9-1.8-1.6c-0.4-0.9-0.3-2,0.3-2.8c0.5-0.7,1.2-1,2-0.9l-0.2,1.6
						c-0.2,0-0.4,0.1-0.5,0.3c-0.2,0.2-0.3,0.7-0.1,1.1c0.2,0.4,0.6,0.7,0.8,0.8c0.5,0.2,1,0.2,1.5-0.1c1.3-0.6,1.6-2.2,1.1-3.4
						c-0.5-1.1-1.6-1.8-2.9-1.8c-0.6-0.1-3.7,0.1-4,4.5l0,0.4l-1.6-0.1l0-0.4c0.3-4.9,3.8-6.1,5.7-6c1.9,0.1,3.6,1.1,4.3,2.8
						c0.9,2.1,0.1,4.5-1.8,5.5C316.1,421.7,315.6,421.8,315,421.8z"/>
				</g>
				<path class="st1" d="M313.2,418.1c-0.3-0.6,0-1.4,0.7-1.7c0.6-0.3,1.4,0,1.7,0.7c0.3,0.6,0,1.4-0.7,1.7
					C314.2,419,313.5,418.7,313.2,418.1L313.2,418.1z"/>
				<g>
					<path class="st0" d="M300.4,428.2c-0.1,0-0.2,0-0.3-0.1c-2.5-1.1-4.9-1.1-7.4,0c-0.4,0.2-0.9,0-1.1-0.4c-0.2-0.4,0-0.9,0.4-1.1
						c2.8-1.3,5.8-1.3,8.7,0c0.4,0.2,0.6,0.7,0.4,1.1C301,428,300.7,428.2,300.4,428.2z"/>
				</g>
				<path class="st1" d="M277.3,418.1c-0.3-0.6,0-1.4,0.7-1.7c0.6-0.3,1.4,0,1.7,0.7c0.3,0.6,0,1.4-0.7,1.7
					C278.4,419,277.6,418.7,277.3,418.1L277.3,418.1z"/>
				<path class="st1" d="M305.7,419.5c0-0.9-0.7-1.6-1.6-1.6c-0.9,0-1.6,0.7-1.6,1.6c0,0.9,0.7,1.6,1.6,1.6
					C305,421,305.7,420.3,305.7,419.5L305.7,419.5z"/>
			</g>
		</g>
	</g>
	<path class="st0" d="M272.7,195.6l28-0.1v-18.7c0-1-0.8-1.9-1.8-1.9h-24.5c-1,0-1.8,0.8-1.8,1.9V195.6z"/>
	<g>
		<path class="st0" d="M300.7,196.3l-25.9,0.1l3.5,3.5l6.5,0c0.8-0.9,1.9-1.4,3.1-1.4c1.2,0,2.3,0.5,3.1,1.4l9.7-0.1L300.7,196.3z"
			/>
	</g>
	<path class="st0" d="M311.5,177.7c0.1,0,0.1-0.2,0-0.2c-0.7-0.4-1.4-0.7-2.2-0.9c-1.1-0.3-2.2-0.3-3.4-0.4c-1,0-2,0-3,0.3
		c-0.5,0.2-1.3,0.4-1.5,0.7c-0.2,0.2-0.5,0.5,0.2,0.5L311.5,177.7z"/>
	<path class="st0" d="M288,198.9c-2,0-3.6,1.6-3.6,3.6c0,2,1.6,3.6,3.6,3.6c2,0,3.6-1.6,3.6-3.6C291.6,200.5,289.9,198.9,288,198.9z
		 M288,204.8c-1.2,0-2.2-1-2.2-2.2c0-1.2,1-2.2,2.2-2.2c1.2,0,2.2,1,2.2,2.2C290.2,203.8,289.2,204.8,288,204.8z"/>
	<path class="st0" d="M317.3,197.5c-1.8,0-3.3,1.5-3.3,3.4c0,1.9,1.5,3.4,3.3,3.4c1.8,0,3.3-1.5,3.3-3.4
		C320.6,199,319.1,197.5,317.3,197.5z M317.3,202.9c-1.1,0-2.1-0.9-2.1-2.1c0-1.1,0.9-2.1,2.1-2.1c1.1,0,2.1,0.9,2.1,2.1
		C319.3,202,318.4,202.9,317.3,202.9z"/>
	<path class="st0" d="M317.3,197.1c0.5,0,1,0.1,1.4,0.3c0.3,0.1,1.2,0.1,1.7-0.1c0.4-0.2,0.5-0.7,0.5-1.1c0-0.7-0.8-1.5-1.3-1.8
		c-0.8-0.5-1.9-1-2.7-1.1c0,0-0.8,3.7-0.9,4C316.5,197.1,316.9,197.1,317.3,197.1z"/>
	<path class="st0" d="M303.4,178.1v22.7l8.2,0.1c0.6,0,1.2-0.4,1.6-0.8l0.5-0.4c0.3-1,1-1.9,1.9-2.3l1-4.4l-0.1-5
		c0-0.9-0.3-1.7-0.7-2.4l-4.8-7.4 M302.9,178.1h0.5 M310.3,186.2l-6,0V179h4l2.5,6.4C311,185.8,310.7,186.2,310.3,186.2z"/>
	<polygon class="st0" points="302.9,200.8 301.3,199.9 301.3,178.1 302.9,178.1 	"/>
	<g>
		<path class="st0" d="M215.9,375.3h2.7v18.9h9v2.3h-11.8V375.3z"/>
		<path class="st0" d="M230.8,374.9c-0.7,2.6-2.1,6-3,7.4l-1.8,0.2c0.7-1.9,1.5-5.1,1.9-7.4L230.8,374.9z"/>
		<path class="st0" d="M234.6,389.8l-2.2,6.7h-2.8l7.2-21.2h3.3l7.2,21.2h-2.9l-2.3-6.7H234.6z M241.5,387.6l-2.1-6.1
			c-0.5-1.4-0.8-2.6-1.1-3.9h-0.1c-0.3,1.3-0.7,2.5-1.1,3.8l-2.1,6.1H241.5z"/>
		<path class="st0" d="M250.4,375.5c1.3-0.2,3-0.4,5.2-0.4c2.7,0,4.7,0.6,5.9,1.8c1.2,1,1.9,2.5,1.9,4.4c0,1.9-0.6,3.4-1.6,4.5
			c-1.4,1.5-3.8,2.3-6.5,2.3c-0.8,0-1.6,0-2.2-0.2v8.5h-2.7V375.5z M253.1,385.7c0.6,0.2,1.4,0.2,2.3,0.2c3.3,0,5.3-1.6,5.3-4.5
			c0-2.8-2-4.1-5-4.1c-1.2,0-2.1,0.1-2.6,0.2V385.7z"/>
		<path class="st0" d="M278,386.5h-8.2v7.6h9.2v2.3h-11.9v-21.2h11.4v2.3h-8.7v6.7h8.2V386.5z M277.5,370.5l-4,3.7h-2.3l2.9-3.7
			H277.5z"/>
		<path class="st0" d="M282.5,375.6c1.4-0.3,3.4-0.4,5.2-0.4c2.9,0,4.8,0.5,6.1,1.7c1.1,0.9,1.7,2.4,1.7,4c0,2.8-1.8,4.6-4,5.4v0.1
			c1.6,0.6,2.6,2.1,3.1,4.3c0.7,3,1.2,5,1.6,5.8h-2.8c-0.3-0.6-0.8-2.4-1.4-5.1c-0.6-2.9-1.8-4-4.2-4.1h-2.6v9.2h-2.7V375.6z
			 M285.3,385.2h2.8c2.9,0,4.8-1.6,4.8-4c0-2.7-2-3.9-4.9-4c-1.3,0-2.3,0.1-2.7,0.3V385.2z"/>
		<path class="st0" d="M317.6,385.6c0,7.3-4.4,11.2-9.8,11.2c-5.6,0-9.5-4.3-9.5-10.7c0-6.7,4.2-11.1,9.8-11.1
			C313.9,374.9,317.6,379.4,317.6,385.6z M301.2,386c0,4.5,2.5,8.6,6.8,8.6c4.3,0,6.8-4,6.8-8.8c0-4.2-2.2-8.6-6.8-8.6
			C303.5,377.2,301.2,381.3,301.2,386z"/>
		<path class="st0" d="M331.4,396.4l-6.9-21.2h3l3.3,10.4c0.9,2.9,1.7,5.4,2.3,7.9h0.1c0.6-2.5,1.5-5.1,2.4-7.9l3.6-10.5h2.9
			l-7.6,21.2H331.4z"/>
		<path class="st0" d="M345.9,389.8l-2.2,6.7h-2.8l7.2-21.2h3.3l7.2,21.2h-2.9l-2.3-6.7H345.9z M352.8,387.6l-2.1-6.1
			c-0.5-1.4-0.8-2.6-1.1-3.9h-0.1c-0.3,1.3-0.7,2.5-1.1,3.8l-2.1,6.1H352.8z"/>
		<path class="st0" d="M361.7,396.4v-21.2h3l6.8,10.7c1.6,2.5,2.8,4.7,3.8,6.9l0.1,0c-0.3-2.8-0.3-5.4-0.3-8.7v-8.9h2.6v21.2h-2.8
			l-6.7-10.7c-1.5-2.4-2.9-4.8-4-7.1l-0.1,0c0.2,2.7,0.2,5.2,0.2,8.7v9H361.7z"/>
	</g>
</g>
</svg>
