<?xml version="1.0" encoding="utf-8"?>
<!-- Generator: Adobe Illustrator 22.1.0, SVG Export Plug-In . SVG Version: 6.00 Build 0)  -->
<svg version="1.1" id="Calque_1" xmlns="http://www.w3.org/2000/svg" xmlns:xlink="http://www.w3.org/1999/xlink" x="0px" y="0px"
	 viewBox="0 0 595.3 595.3" style="enable-background:new 0 0 595.3 595.3;" xml:space="preserve">
<style type="text/css">
	.st0{fill:#000000;}
</style>
<g id="fond">
</g>
<g id="Calque_1_1_">
	<path class="st0" d="M185.1,304.1l149-0.5V204c0-5.3-4.3-10.1-9.6-10.1H194.2c-5.3,0-9.6,4.3-9.6,10.1v100H185.1z"/>
	<g>
		<path class="st0" d="M334.1,307.8l-137.8,0.5l18.6,18.6h34.6c4.3-4.8,10.1-7.5,16.5-7.5s12.2,2.7,16.5,7.5l51.6-0.5L334.1,307.8z"
			/>
	</g>
	<path class="st0" d="M391.6,208.8c0.5,0,0.5-1.1,0-1.1c-3.7-2.1-7.4-3.7-11.7-4.8c-5.9-1.6-11.7-1.6-18.1-2.1c-5.3,0-10.6,0-16,1.6
		c-2.7,1.1-6.9,2.1-8,3.7c-1.1,1.1-2.7,2.7,1.1,2.7L391.6,208.8z"/>
	<path class="st0" d="M266.6,321.6c-10.6,0-19.2,8.5-19.2,19.2c0,10.6,8.5,19.2,19.2,19.2c10.6,0,19.2-8.5,19.2-19.2
		C285.7,330.1,276.7,321.6,266.6,321.6z M266.6,353c-6.4,0-11.7-5.3-11.7-11.7c0-6.4,5.3-11.7,11.7-11.7c6.4,0,11.7,5.3,11.7,11.7
		C278.3,347.7,272.9,353,266.6,353z"/>
	<path class="st0" d="M422.5,314.2c-9.6,0-17.6,8-17.6,18.1s8,18.1,17.6,18.1c9.6,0,17.6-8,17.6-18.1
		C440,322.1,432,314.2,422.5,314.2z M422.5,342.9c-5.9,0-11.2-4.8-11.2-11.2c0-5.9,4.8-11.2,11.2-11.2c5.9,0,11.2,4.8,11.2,11.2
		C433.1,338.1,428.3,342.9,422.5,342.9z"/>
	<path class="st0" d="M422.5,312c2.7,0,5.3,0.5,7.5,1.6c1.6,0.5,6.4,0.5,9-0.5c2.1-1.1,2.7-3.7,2.7-5.9c0-3.7-4.3-8-6.9-9.6
		c-4.3-2.7-10.1-5.3-14.4-5.9c0,0-4.3,19.7-4.8,21.3C418.2,312,420.3,312,422.5,312z"/>
	<path class="st0" d="M348.5,210.9v120.8l43.6,0.5c3.2,0,6.4-2.1,8.5-4.3l2.7-2.1c1.6-5.3,5.3-10.1,10.1-12.2l5.3-23.4l-0.5-26.6
		c0-4.8-1.6-9-3.7-12.8l-25.5-39.4 M345.8,210.9h2.7 M385.2,254h-31.9v-38.3h21.3l13.3,34.1C388.9,251.9,387.3,254,385.2,254z"/>
	<polygon class="st0" points="345.8,331.7 337.3,326.9 337.3,210.9 345.8,210.9 	"/>
</g>
</svg>
